<svg width="28" height="28" viewBox="0 0 28 28" fill="none" xmlns="http://www.w3.org/2000/svg">
<path d="M7.85335 15.3649C7.52044 15.0637 7.49469 14.5494 7.79593 14.2162C8.09717 13.8833 8.61169 13.8576 8.9446 14.1588L11.9253 16.8618L19.0091 9.44248C19.3193 9.11641 19.8352 9.10365 20.1612 9.41377C20.4873 9.72389 20.5001 10.2396 20.1899 10.5656L12.5576 18.5589L12.5565 18.558C12.2534 18.8765 11.7496 18.8973 11.4217 18.6006L7.85335 15.3649ZM2.00339 0H25.9966C26.5485 0 27.0494 0.22513 27.4121 0.587891C27.7749 0.950651 28 1.45173 28 2.00339V25.9964C28 26.5483 27.7749 27.0491 27.4121 27.4119C27.0494 27.7746 26.5485 27.9998 25.9966 27.9998H2.00339C1.45173 27.9998 0.950651 27.7746 0.587891 27.4119C0.22513 27.0491 0 26.5485 0 25.9966V2.00339C0 1.45173 0.22513 0.950651 0.587891 0.587891C0.950651 0.22513 1.45173 0 2.00339 0ZM25.9966 1.63379H2.00339C1.90267 1.63379 1.81038 1.67572 1.74294 1.74294C1.67572 1.81038 1.63379 1.90267 1.63379 2.00339V25.9964C1.63379 26.0971 1.67572 26.1896 1.74294 26.2571C1.81038 26.3245 1.90267 26.3662 2.00339 26.3662H25.9966C26.0973 26.3662 26.1898 26.3243 26.2573 26.2571C26.3245 26.1896 26.3664 26.0973 26.3664 25.9964V2.00339C26.3664 1.90244 26.3243 1.81016 26.2573 1.74294C26.1898 1.67572 26.0973 1.63379 25.9966 1.63379Z" fill="#E11D07"/>
</svg>
