<svg width="19" height="16" viewBox="0 0 19 16" fill="none" xmlns="http://www.w3.org/2000/svg">
<path d="M17.3417 8.45829L18.625 9.75079L12.6392 15.7916L9.45833 12.5833L10.7417 11.2908L12.6392 13.1975L17.3417 8.45829ZM8.08333 0.666626C9.05579 0.666626 9.98843 1.05293 10.6761 1.74057C11.3637 2.4282 11.75 3.36083 11.75 4.33329C11.75 5.30575 11.3637 6.23838 10.6761 6.92602C9.98843 7.61365 9.05579 7.99996 8.08333 7.99996C7.11087 7.99996 6.17824 7.61365 5.49061 6.92602C4.80298 6.23838 4.41667 5.30575 4.41667 4.33329C4.41667 3.36083 4.80298 2.4282 5.49061 1.74057C6.17824 1.05293 7.11087 0.666626 8.08333 0.666626ZM8.08333 2.49996C7.5971 2.49996 7.13079 2.69311 6.78697 3.03693C6.44315 3.38075 6.25 3.84706 6.25 4.33329C6.25 4.81952 6.44315 5.28584 6.78697 5.62965C7.13079 5.97347 7.5971 6.16663 8.08333 6.16663C8.56956 6.16663 9.03588 5.97347 9.3797 5.62965C9.72351 5.28584 9.91667 4.81952 9.91667 4.33329C9.91667 3.84706 9.72351 3.38075 9.3797 3.03693C9.03588 2.69311 8.56956 2.49996 8.08333 2.49996ZM8.08333 8.91663C8.70667 8.91663 9.45833 8.99913 10.2925 9.15496L8.76167 10.6858L8.08333 10.6583C5.36083 10.6583 2.49167 11.9966 2.49167 12.5833V13.5916H8.175L9.91667 15.3333H0.75V12.5833C0.75 10.145 5.63583 8.91663 8.08333 8.91663Z" fill="#616161"/>
</svg>
