<svg width="20" height="20" viewBox="0 0 20 20" fill="none" xmlns="http://www.w3.org/2000/svg">
<path fill-rule="evenodd" clip-rule="evenodd" d="M5.8335 5.00004C5.8335 2.69886 7.69898 0.833374 10.0002 0.833374C12.3013 0.833374 14.1668 2.69886 14.1668 5.00004C14.1668 7.30122 12.3013 9.16671 10.0002 9.16671C7.69898 9.16671 5.8335 7.30122 5.8335 5.00004ZM10.0002 2.50004C8.61941 2.50004 7.50016 3.61933 7.50016 5.00004C7.50016 6.38075 8.61941 7.50004 10.0002 7.50004C11.3809 7.50004 12.5002 6.38075 12.5002 5.00004C12.5002 3.61933 11.3809 2.50004 10.0002 2.50004Z" fill="#151B25"/>
<path d="M3.38475 17.5C3.79483 14.2114 6.60015 11.6667 9.99984 11.6667C11.9055 11.6667 13.6233 12.4652 14.8393 13.7482L15.4126 14.353L16.6223 13.2065L16.049 12.6017C14.5313 11.0004 12.3818 10 9.99984 10C5.39746 10 1.6665 13.731 1.6665 18.3333V19.1667H11.2788V17.5H3.38475Z" fill="#151B25"/>
<path d="M19.5118 15L15 19.5119L12.1548 16.6667L13.3333 15.4882L15 17.1549L18.3333 13.8215L19.5118 15Z" fill="#151B25"/>
</svg>
