<svg width="32" height="32" viewBox="0 0 32 32" fill="none" xmlns="http://www.w3.org/2000/svg">
<g clip-path="url(#clip0_887_5469)">
<path d="M1.33337 28V4.00004C1.33337 2.52728 2.52728 1.33337 4.00004 1.33337H28C29.4728 1.33337 30.6667 2.52728 30.6667 4.00004V28C30.6667 29.4728 29.4728 30.6667 28 30.6667H4.00004C2.52728 30.6667 1.33337 29.4728 1.33337 28Z" stroke="#737373" stroke-width="1.5"/>
<path d="M20 9.33337H22.6667H25.3333" stroke="#737373" stroke-width="1.5" stroke-linecap="round" stroke-linejoin="round"/>
<path d="M20 20.6666H22.6667H25.3333" stroke="#737373" stroke-width="1.5" stroke-linecap="round" stroke-linejoin="round"/>
<path d="M20 24.6666H22.6667H25.3333" stroke="#737373" stroke-width="1.5" stroke-linecap="round" stroke-linejoin="round"/>
<path d="M6.66663 9.33329H9.33329M9.33329 9.33329H12M9.33329 9.33329V6.66663M9.33329 9.33329V12" stroke="#737373" stroke-width="1.5" stroke-linecap="round" stroke-linejoin="round"/>
<path d="M7.44812 24.5522L9.33373 22.6666M9.33373 22.6666L11.2194 20.781M9.33373 22.6666L7.44812 20.781M9.33373 22.6666L11.2194 24.5522" stroke="#737373" stroke-width="1.5" stroke-linecap="round" stroke-linejoin="round"/>
</g>
<defs>
<clipPath id="clip0_887_5469">
<rect width="32" height="32" fill="white"/>
</clipPath>
</defs>
</svg>
