<svg width="28" height="28" viewBox="0 0 28 28" fill="none" xmlns="http://www.w3.org/2000/svg">
<path d="M12.7305 20.9066C12.2633 20.9066 11.8866 20.5443 11.8866 20.0999C11.8866 19.6556 12.2656 19.2933 12.7305 19.2933H17.4628C17.93 19.2933 18.3067 19.6556 18.3067 20.0999C18.3067 20.5443 17.9276 20.9066 17.4628 20.9066H12.7305ZM5.53802 20.1068C5.3473 19.8333 5.42358 19.4642 5.70966 19.2796C5.99574 19.0973 6.38195 19.1702 6.57505 19.4437L6.91358 19.9268L8.26054 18.3591C8.47986 18.1061 8.87084 18.0697 9.13785 18.277C9.40247 18.4867 9.44061 18.8604 9.22367 19.1156L7.35939 21.2826C7.31886 21.3327 7.2688 21.3783 7.21158 21.4147C6.9255 21.597 6.53929 21.5241 6.34619 21.2507L5.53802 20.1068ZM5.53802 14.4329C5.3473 14.1595 5.42358 13.7904 5.70966 13.6058C5.99574 13.4235 6.38195 13.4964 6.57505 13.7699L6.91358 14.2529L8.26054 12.6852C8.47986 12.4323 8.87084 12.3958 9.13785 12.6032C9.40247 12.8128 9.44061 13.1865 9.22367 13.4417L7.35939 15.6087C7.31886 15.6589 7.2688 15.7044 7.21158 15.7409C6.9255 15.9232 6.53929 15.8503 6.34619 15.5768L5.53802 14.4329ZM5.53802 8.75684C5.3473 8.4834 5.42358 8.11426 5.70966 7.92969C5.99574 7.7474 6.38195 7.82031 6.57505 8.09375L6.91358 8.57682L8.26054 7.00911C8.47986 6.75619 8.87084 6.71973 9.13785 6.92708C9.40247 7.13672 9.44061 7.51042 9.22367 7.76563L7.35939 9.93262C7.31886 9.98275 7.2688 10.0283 7.21158 10.0648C6.9255 10.2471 6.53929 10.1742 6.34619 9.90072L5.53802 8.75684ZM12.7305 8.89355C12.2633 8.89355 11.8866 8.53125 11.8866 8.08692C11.8866 7.64258 12.2656 7.28027 12.7305 7.28027H21.382C21.8493 7.28027 22.226 7.64258 22.226 8.08692C22.226 8.53125 21.8469 8.89355 21.382 8.89355H12.7305ZM1.95964 0H26.0427C26.5839 0 27.075 0.209635 27.4278 0.546875C27.7807 0.884115 28 1.35352 28 1.87077V26.1247C28 26.6419 27.7807 27.1113 27.4278 27.4486C27.075 27.7858 26.5839 27.9954 26.0427 27.9954H1.95964C1.41848 27.9954 0.927373 27.7858 0.574542 27.4486C0.219327 27.1159 0 26.6442 0 26.127V1.87305C0 1.35579 0.219327 0.884115 0.572158 0.546875C0.924989 0.209635 1.41848 0 1.95964 0ZM26.0427 1.61328H1.95964C1.88335 1.61328 1.81422 1.6429 1.76416 1.69076C1.71409 1.73861 1.6831 1.80469 1.6831 1.8776V26.1315C1.6831 26.2044 1.71409 26.2705 1.76416 26.3184C1.81422 26.3662 1.88335 26.3958 1.95964 26.3958H26.0427C26.119 26.3958 26.1882 26.3662 26.2382 26.3184C26.2883 26.2705 26.3193 26.2044 26.3193 26.1315V1.8776C26.3193 1.80469 26.2883 1.73861 26.2382 1.69076C26.1858 1.6429 26.1166 1.61328 26.0427 1.61328ZM12.7305 14.9001C12.2633 14.9001 11.8866 14.5378 11.8866 14.0934C11.8866 13.6491 12.2656 13.2868 12.7305 13.2868H21.382C21.8493 13.2868 22.226 13.6491 22.226 14.0934C22.226 14.5378 21.8469 14.9001 21.382 14.9001H12.7305Z" fill="#E11D07"/>
</svg>
