<svg width="20" height="20" viewBox="0 0 20 20" fill="none" xmlns="http://www.w3.org/2000/svg">
<path d="M7.725 14L10 11.6889L12.275 14L13.5 12.7556L11.225 10.4444L13.5 8.13333L12.275 6.88889L10 9.2L7.725 6.88889L6.5 8.13333L8.775 10.4444L6.5 12.7556L7.725 14ZM5.625 18C5.14375 18 4.73192 17.8261 4.3895 17.4782C4.0465 17.1298 3.875 16.7111 3.875 16.2222V4.66667H3V2.88889H7.375V2H12.625V2.88889H17V4.66667H16.125V16.2222C16.125 16.7111 15.9538 17.1298 15.6114 17.4782C15.2684 17.8261 14.8562 18 14.375 18H5.625ZM14.375 4.66667H5.625V16.2222H14.375V4.66667Z" fill="#151B25"/>
</svg>
