<svg width="22" height="22" viewBox="0 0 22 22" fill="none" xmlns="http://www.w3.org/2000/svg">
<path d="M11.0026 1.83594C5.96094 1.83594 1.83594 5.96094 1.83594 11.0026C1.83594 16.0443 5.96094 20.1693 11.0026 20.1693C16.0443 20.1693 20.1693 16.0443 20.1693 11.0026C20.1693 5.96094 16.0443 1.83594 11.0026 1.83594ZM11.0026 18.3359C6.9601 18.3359 3.66927 15.0451 3.66927 11.0026C3.66927 6.9601 6.9601 3.66927 11.0026 3.66927C15.0451 3.66927 18.3359 6.9601 18.3359 11.0026C18.3359 15.0451 15.0451 18.3359 11.0026 18.3359ZM15.2101 6.95094L9.16927 12.9918L6.7951 10.6268L5.5026 11.9193L9.16927 15.5859L16.5026 8.2526L15.2101 6.95094Z" fill="#616161"/>
</svg>
