<svg width="20" height="20" viewBox="0 0 20 20" fill="none" xmlns="http://www.w3.org/2000/svg">
<path d="M4.536 18C4.1136 18 3.75213 17.8435 3.45158 17.5304C3.15053 17.2168 3 16.84 3 16.4V3.6C3 3.16 3.15053 2.7832 3.45158 2.4696C3.75213 2.15653 4.1136 2 4.536 2H10.68L15.288 6.8V10H13.752V7.6H9.912V3.6H4.536V16.4H9.144V18H4.536ZM13.9824 12.02L14.808 12.88L11.832 15.96V16.8H12.6384L15.6144 13.72L16.4208 14.56L13.1184 18H10.68V15.46L13.9824 12.02ZM16.4208 14.56L13.9824 12.02L15.096 10.86C15.2368 10.7133 15.416 10.64 15.6336 10.64C15.8512 10.64 16.0304 10.7133 16.1712 10.86L17.5344 12.28C17.6752 12.4267 17.7456 12.6133 17.7456 12.84C17.7456 13.0667 17.6752 13.2533 17.5344 13.4L16.4208 14.56Z" fill="#151B25"/>
</svg>
