<svg width="20" height="20" viewBox="0 0 20 20" fill="none" xmlns="http://www.w3.org/2000/svg">
<path d="M3.69316 9.27778L4.47059 8.45176L8.55093 12.7871L8.91503 13.174L9.27913 12.7871L18.5163 2.97269L19.3076 3.78396L8.91503 14.826L3.69316 9.27778ZM17.232 17.7778V10.5872L18.3235 9.42746V17.7778C18.3235 18.2647 18.1653 18.6647 17.8455 19.0052C17.526 19.3439 17.1634 19.5 16.732 19.5H2.0915C1.66016 19.5 1.29756 19.3439 0.978038 19.0052C0.658209 18.6647 0.5 18.2647 0.5 17.7778V2.22222C0.5 1.7353 0.658184 1.33538 0.977963 0.994898C1.2975 0.656106 1.66013 0.5 2.0915 0.5H16.4898L15.3395 1.72222H2.0915H1.5915V2.22222V17.7778V18.2778H2.0915H16.732H17.232V17.7778Z" fill="#E11D07" stroke="#008000"/>
</svg>
