<svg width="28" height="28" viewBox="0 0 28 28" fill="none" xmlns="http://www.w3.org/2000/svg">
<g clip-path="url(#clip0_457_9786)">
<path d="M13.6683 1.17032C13.3861 1.17032 13.1279 1.2184 12.895 1.31456C12.6606 1.4114 12.4449 1.55792 12.249 1.7548L12.2481 1.75594L12.2493 1.75708C12.0466 1.95942 11.8967 2.1743 11.8005 2.40171C11.7052 2.6273 11.6572 2.87773 11.6572 3.15322C11.6572 3.43304 11.7059 3.68847 11.8025 3.91976C11.8994 4.15173 12.0486 4.36797 12.2495 4.56827C12.2591 4.57784 12.2685 4.58786 12.2774 4.59789C12.4666 4.78178 12.6736 4.92055 12.8973 5.01352C13.1304 5.11036 13.3877 5.1589 13.6688 5.1589C13.951 5.1589 14.2076 5.11036 14.4389 5.01375C14.6706 4.91713 14.8835 4.76993 15.078 4.57305C15.2731 4.37572 15.4182 4.1597 15.5142 3.92546C15.6097 3.69189 15.6573 3.4344 15.6573 3.15322C15.6573 2.87659 15.6104 2.62457 15.5165 2.39716C15.4212 2.16678 15.2752 1.95213 15.078 1.75252C14.884 1.5561 14.6712 1.41004 14.4389 1.31365C14.2081 1.21817 13.9514 1.17032 13.6683 1.17032ZM12.4458 0.235614C12.8263 0.0783861 13.2346 0 13.6683 0C14.1036 0 14.5101 0.0779303 14.8879 0.234702C15.264 0.390791 15.6054 0.623898 15.9121 0.934025C16.2153 1.24119 16.4438 1.58071 16.5978 1.9535C16.7532 2.32902 16.8307 2.7287 16.8307 3.15299C16.8307 3.58457 16.7541 3.98812 16.6003 4.36387C16.4468 4.73917 16.2176 5.08165 15.9121 5.39086C15.6059 5.70076 15.2647 5.93478 14.8879 6.09224C14.5108 6.24992 14.1043 6.32899 13.6683 6.32899C13.2346 6.32899 12.8269 6.24969 12.4476 6.09201C12.0838 5.94093 11.7518 5.71854 11.4527 5.42596C11.4413 5.41639 11.4301 5.4059 11.4193 5.39519C11.1115 5.08826 10.8782 4.74555 10.7201 4.36729C10.5624 3.98949 10.4831 3.58457 10.4831 3.15253C10.4831 2.72711 10.5633 2.3256 10.7228 1.94849C10.8816 1.57319 11.114 1.23344 11.4193 0.929012L11.4205 0.930151C11.7276 0.622531 12.0701 0.391019 12.4458 0.235614ZM5.57724 4.92419C5.36381 4.92419 5.16866 4.96111 4.9918 5.03471C4.81128 5.1099 4.64355 5.22429 4.48839 5.37765C4.33552 5.53009 4.22126 5.69689 4.14677 5.87804C4.07296 6.05692 4.03594 6.25904 4.03594 6.48417C4.03594 6.70725 4.07319 6.90823 4.147 7.0871C4.22149 7.26757 4.33552 7.43414 4.48839 7.58659C4.64332 7.73994 4.81128 7.85433 4.9918 7.92952C5.16866 8.00313 5.36358 8.04004 5.57724 8.04004C5.80095 8.04004 6.00273 8.0029 6.18211 7.9293C6.36309 7.85501 6.53013 7.74131 6.683 7.58886L6.68529 7.58659C6.8393 7.4346 6.95401 7.26734 7.02942 7.08596C7.10414 6.9064 7.14139 6.70565 7.14139 6.48417C7.14139 6.25904 7.10414 6.05669 7.02965 5.8769C6.95516 5.69712 6.84021 5.53055 6.68506 5.37742L6.68277 5.37514C6.5299 5.2227 6.36286 5.10922 6.18188 5.03471C6.00295 4.96134 5.80095 4.92419 5.57724 4.92419ZM4.54255 3.95576C4.86566 3.82132 5.21071 3.75364 5.57724 3.75364C5.94903 3.75364 6.29933 3.82132 6.62679 3.95599C6.95241 4.08975 7.24696 4.28799 7.51021 4.54958L7.51066 4.55004C7.77596 4.81186 7.97637 5.10649 8.11187 5.43348C8.24761 5.76069 8.31547 6.11092 8.31547 6.48417C8.31547 6.85718 8.24761 7.20742 8.11164 7.53395C7.97705 7.85752 7.77665 8.15124 7.51066 8.41397C7.24742 8.67601 6.95264 8.87449 6.62679 9.00824C6.29933 9.14269 5.94925 9.21036 5.57724 9.21036C5.21071 9.21036 4.86566 9.14291 4.54255 9.00824C4.22195 8.87471 3.92854 8.67647 3.66324 8.41397C3.39931 8.15101 3.1996 7.85615 3.065 7.5303C2.92995 7.20377 2.86209 6.85468 2.86209 6.48394C2.86209 6.11138 2.92995 5.76138 3.06477 5.43439C3.19937 5.10808 3.39886 4.81322 3.66324 4.54981C3.92854 4.28753 4.22195 4.08929 4.54255 3.95576ZM2.28738 13.3644C2.13085 13.3644 1.99032 13.3903 1.8667 13.4423C1.73965 13.4956 1.62014 13.5786 1.50885 13.6911L1.502 13.698C1.38911 13.8092 1.30593 13.9286 1.25223 14.0553C1.19991 14.1785 1.17386 14.3184 1.17386 14.4745C1.17386 14.6306 1.19991 14.7705 1.25201 14.894C1.30616 15.0223 1.39025 15.1435 1.50428 15.2573L1.50657 15.2595C1.61694 15.3696 1.7369 15.4519 1.86555 15.5056C1.99215 15.5583 2.13314 15.5852 2.28738 15.5852C2.45008 15.5852 2.59564 15.5585 2.72338 15.5056C2.85226 15.4523 2.96971 15.3716 3.07529 15.2639C3.18748 15.1495 3.27021 15.0276 3.32322 14.8984C3.37486 14.773 3.40068 14.6315 3.40068 14.4745C3.40068 14.3175 3.37486 14.1756 3.32299 14.0507C3.27043 13.9231 3.18863 13.8032 3.07757 13.6911L3.073 13.6863H3.07277C2.96789 13.5779 2.85135 13.4972 2.72452 13.4443C2.59587 13.3913 2.45008 13.3644 2.28738 13.3644ZM1.41265 12.3679C1.68869 12.2519 1.98072 12.1938 2.28738 12.1938C2.60296 12.1938 2.89888 12.251 3.174 12.3656C3.44913 12.4802 3.69729 12.6507 3.91666 12.8772C4.13146 13.0953 4.29439 13.3388 4.40521 13.6068C4.5181 13.8803 4.57454 14.1696 4.57454 14.4743C4.57454 14.7785 4.5181 15.0677 4.40544 15.3418C4.29439 15.6116 4.13054 15.857 3.9146 16.0776C3.695 16.3016 3.44753 16.4706 3.17309 16.5841C2.89796 16.6981 2.60227 16.7552 2.28761 16.7552C1.97981 16.7552 1.68892 16.6978 1.4163 16.5841C1.14689 16.4718 0.900786 16.305 0.679588 16.0851L0.679131 16.0844L0.677989 16.0833L0.677075 16.0821C0.456106 15.8613 0.288608 15.6159 0.17481 15.3463C0.0580415 15.0711 0 14.7799 0 14.4745C0 14.1687 0.05827 13.8777 0.174582 13.6025C0.288608 13.3334 0.455877 13.0886 0.676846 12.8699C0.896444 12.6491 1.14232 12.4816 1.41265 12.3679ZM5.57724 21.4693C5.43945 21.4693 5.31354 21.4933 5.19951 21.5409C5.08412 21.5892 4.97489 21.6644 4.87252 21.7665C4.86406 21.7749 4.85538 21.7829 4.84669 21.7906C4.75575 21.8866 4.68811 21.9866 4.64378 22.0912C4.59762 22.2008 4.57431 22.3266 4.57431 22.4688C4.57431 22.6155 4.59808 22.7456 4.64583 22.8598C4.69359 22.9737 4.76672 23.0788 4.86543 23.1747L4.87 23.1793C4.97192 23.2791 5.08 23.3527 5.1938 23.3994C5.30668 23.4459 5.43465 23.4691 5.57701 23.4691C5.72623 23.4691 5.86059 23.4454 5.97965 23.3973C6.09893 23.349 6.20907 23.2759 6.30916 23.1772L6.31144 23.1749C6.41016 23.079 6.48328 22.9739 6.53104 22.86C6.57857 22.7461 6.60256 22.6157 6.60256 22.469C6.60256 22.3305 6.5788 22.2047 6.53104 22.0914C6.52624 22.0803 6.5219 22.0689 6.51779 22.0575C6.47026 21.9577 6.39896 21.8611 6.30436 21.7667C6.20107 21.6635 6.09139 21.5883 5.97622 21.5411C5.86036 21.4933 5.72714 21.4693 5.57724 21.4693ZM4.74569 20.462C5.00528 20.3533 5.28292 20.2988 5.57724 20.2988C5.87476 20.2988 6.15628 20.3533 6.42136 20.462C6.68688 20.5711 6.92499 20.7301 7.13454 20.9391C7.32831 21.1323 7.47936 21.3477 7.58744 21.586C7.59681 21.6031 7.60527 21.6207 7.61304 21.6391C7.72181 21.8973 7.77619 22.1737 7.77619 22.4692C7.77619 22.7684 7.72181 23.048 7.61304 23.3085C7.50404 23.5689 7.34202 23.8032 7.12745 24.0119C6.91539 24.2199 6.67934 24.3765 6.41976 24.4811C6.15697 24.5872 5.87567 24.6399 5.57701 24.6399C5.28658 24.6399 5.01054 24.5863 4.74912 24.4788C4.49296 24.3733 4.26011 24.2183 4.05125 24.0137L4.04942 24.0119C3.83485 23.8032 3.67307 23.5689 3.56407 23.3085C3.45507 23.048 3.40068 22.7686 3.40068 22.4692C3.40068 22.1773 3.45598 21.9009 3.56635 21.6391C3.66895 21.3962 3.81634 21.1752 4.00921 20.9753C4.01972 20.9628 4.03091 20.951 4.04257 20.9391C4.25348 20.729 4.48816 20.5697 4.74569 20.462ZM13.6434 24.6052C13.4876 24.6052 13.3482 24.631 13.2252 24.6829C13.0975 24.7365 12.9766 24.8206 12.8626 24.9345L12.8603 24.9368C12.749 25.0478 12.6656 25.169 12.6105 25.3C12.6055 25.3121 12.6 25.3239 12.5941 25.3353C12.5514 25.4502 12.5301 25.5782 12.5301 25.7197C12.5301 25.8751 12.5562 26.0139 12.608 26.1367C12.6606 26.2614 12.7456 26.3819 12.8626 26.4984C12.9794 26.615 13.1005 26.6996 13.2252 26.752C13.3484 26.8039 13.4876 26.8297 13.6434 26.8297C13.9583 26.8297 14.2231 26.7214 14.4352 26.5052C14.5476 26.3904 14.6306 26.2691 14.6834 26.1413C14.735 26.0167 14.7608 25.8761 14.7608 25.7195C14.7608 25.5623 14.735 25.4206 14.6834 25.2952C14.6303 25.1665 14.5474 25.0443 14.4352 24.9297C14.328 24.8206 14.2099 24.7388 14.0808 24.6855C13.9521 24.6321 13.8063 24.6052 13.6434 24.6052ZM12.7714 23.6086C13.0468 23.4926 13.3372 23.4347 13.6434 23.4347C13.9588 23.4347 14.2547 23.4919 14.5303 23.6063C14.8049 23.7204 15.0531 23.8902 15.2743 24.1158C15.4905 24.3364 15.6541 24.5818 15.7651 24.8516C15.878 25.1257 15.9345 25.4151 15.9345 25.7195C15.9345 26.0239 15.878 26.3122 15.7654 26.5845C15.6541 26.8541 15.4902 27.0986 15.2743 27.3191C14.8294 27.773 14.2839 28 13.6434 28C13.337 28 13.0465 27.9421 12.7714 27.8264C12.4981 27.7113 12.252 27.5445 12.0329 27.3257C11.8135 27.107 11.646 26.8618 11.5306 26.5893C11.4145 26.3149 11.3563 26.0251 11.3563 25.7197C11.3563 25.434 11.4072 25.161 11.5089 24.901C11.5144 24.883 11.521 24.8652 11.5283 24.8475C11.6408 24.5809 11.8087 24.3357 12.032 24.1121L12.0326 24.1115L12.0338 24.1103L12.0349 24.1092C12.2564 23.8891 12.5015 23.722 12.7714 23.6086ZM21.5494 21.2759C21.2354 21.2759 20.9736 21.3841 20.7617 21.6004L20.7553 21.6068C20.6463 21.7175 20.5659 21.8364 20.5138 21.9622C20.4619 22.0876 20.4361 22.2291 20.4361 22.3858C20.4361 22.5522 20.4619 22.6985 20.5136 22.8242C20.5641 22.9473 20.6452 23.0646 20.7572 23.1763C20.8689 23.288 20.9866 23.3691 21.11 23.4192C21.2361 23.4707 21.3824 23.4964 21.5494 23.4964C21.7068 23.4964 21.849 23.4705 21.9747 23.419C22.104 23.3661 22.2265 23.2834 22.3412 23.1717C22.4511 23.0642 22.5331 22.9471 22.5866 22.8195C22.6398 22.6919 22.6668 22.5476 22.6668 22.3858C22.6668 22.0855 22.5569 21.8241 22.3368 21.6072L22.3357 21.6061L22.3346 21.6072C22.2208 21.4937 22.0992 21.4099 21.9703 21.3559C21.8426 21.3025 21.7023 21.2759 21.5494 21.2759ZM19.9226 20.7867C20.3678 20.3325 20.9082 20.1056 21.5494 20.1056C21.8593 20.1056 22.1511 20.1628 22.4241 20.2772C22.6951 20.3906 22.9422 20.5581 23.164 20.7798L23.1631 20.781C23.6147 21.2269 23.8404 21.7653 23.8404 22.3861C23.8404 22.7007 23.7831 22.9945 23.6684 23.2679C23.5539 23.5413 23.3834 23.7881 23.1574 24.0085C22.9362 24.224 22.6899 24.3874 22.4196 24.4981C22.1449 24.6105 21.8545 24.667 21.5494 24.667C21.2389 24.667 20.9457 24.6105 20.6696 24.4984C20.3911 24.3847 20.1436 24.2197 19.9272 24.0039C19.7106 23.7879 19.5451 23.5411 19.4313 23.2631C19.3187 22.9879 19.2622 22.6957 19.2622 22.3858C19.2622 22.0814 19.3187 21.792 19.4316 21.5186C19.5424 21.2501 19.7056 21.0066 19.9206 20.7887L19.9226 20.7867ZM24.9754 12.8975C24.7129 12.8975 24.4741 12.9414 24.2598 13.0301C24.0477 13.1176 23.8487 13.2536 23.6633 13.4387C23.4776 13.6237 23.3411 13.8222 23.2534 14.0334C23.1647 14.2471 23.1206 14.4852 23.1206 14.7471C23.1206 15.0055 23.1647 15.242 23.2536 15.4553C23.3425 15.6686 23.4787 15.8677 23.6633 16.0516C23.8489 16.2366 24.0479 16.3727 24.2598 16.4602C24.4741 16.5486 24.7127 16.5926 24.9754 16.5926C25.2346 16.5926 25.4715 16.5486 25.6857 16.4599C25.8995 16.3715 26.0993 16.2355 26.2834 16.0516C26.4681 15.8675 26.6043 15.6686 26.6929 15.4553C26.7818 15.2418 26.8261 15.0052 26.8261 14.7471C26.8261 14.4855 26.782 14.2473 26.6932 14.0334C26.6054 13.8222 26.469 13.6237 26.2834 13.4387C26.099 13.2548 25.8993 13.1187 25.6857 13.0303C25.4715 12.9417 25.2346 12.8975 24.9754 12.8975ZM23.8151 11.9509C24.1775 11.8014 24.5644 11.7269 24.9754 11.7269C25.3863 11.7269 25.7732 11.8014 26.1351 11.9511C26.4948 12.0999 26.8213 12.3198 27.1134 12.611C27.4045 12.9016 27.625 13.2281 27.7751 13.59C27.9251 13.9514 27.9998 14.3374 27.9998 14.7471C27.9998 15.1568 27.9251 15.5428 27.7749 15.9035C27.6259 16.2621 27.4054 16.5878 27.1132 16.879C26.8209 17.1702 26.4946 17.3901 26.1349 17.5389C25.7729 17.6884 25.3861 17.7629 24.9752 17.7629C24.5641 17.7629 24.1773 17.6884 23.8148 17.5389C23.452 17.3894 23.1245 17.1695 22.8332 16.879C22.5411 16.5878 22.3206 16.2621 22.1714 15.9035C22.0213 15.5428 21.9465 15.1568 21.9465 14.7471C21.9465 14.3374 22.0213 13.9516 22.1712 13.59C22.3213 13.2281 22.5418 12.9016 22.8329 12.611C23.1245 12.3205 23.4522 12.1006 23.8151 11.9509ZM21.6879 3.36376C22.6668 3.36376 23.5086 3.71035 24.2042 4.40375C24.5497 4.74828 24.8102 5.13429 24.9871 5.56268C25.1633 5.99038 25.251 6.44908 25.251 6.9399C25.251 7.42594 25.1631 7.88122 24.9864 8.30505C24.8114 8.72501 24.5504 9.10759 24.2029 9.4519L24.2042 9.45304C23.8603 9.79598 23.476 10.0551 23.0528 10.2301C22.6284 10.4055 22.1728 10.4932 21.6879 10.4932C20.7044 10.4932 19.863 10.1467 19.1676 9.45327C18.8233 9.10987 18.5623 8.72592 18.3854 8.30231C18.2093 7.87939 18.1206 7.42526 18.1206 6.94013C18.1206 6.44885 18.2095 5.99015 18.3861 5.5629C18.5623 5.13725 18.823 4.75215 19.1676 4.40625L19.1688 4.40511L19.1676 4.40397C19.5106 4.06195 19.8957 3.80286 20.3221 3.62695C20.7471 3.45127 21.2025 3.36376 21.6879 3.36376ZM23.3743 5.23136C22.9081 4.76651 22.3439 4.53409 21.6879 4.53409C21.3511 4.53409 21.0439 4.59128 20.7668 4.70567C20.4916 4.81915 20.235 4.99438 19.9976 5.23136L19.9962 5.23022C19.7606 5.46697 19.5842 5.7256 19.4681 6.0061C19.3525 6.2857 19.2942 6.59673 19.2942 6.9399C19.2942 7.27281 19.3523 7.5777 19.4674 7.8541C19.5831 8.13164 19.7599 8.38913 19.9974 8.62566C20.4633 9.0905 21.0277 9.32293 21.6876 9.32293C22.0208 9.32293 22.3263 9.26573 22.6033 9.15134C22.8805 9.03673 23.1375 8.8615 23.374 8.62588L23.3752 8.62702L23.3763 8.62588C23.6122 8.39232 23.7881 8.13597 23.9044 7.85729C24.0196 7.58043 24.0774 7.27441 24.0774 6.94036C24.0774 6.59673 24.02 6.2857 23.9049 6.00656C23.7902 5.72811 23.6135 5.46993 23.3743 5.23136Z" fill="#E11D07"/>
</g>
<defs>
<clipPath id="clip0_457_9786">
<rect width="28" height="28" fill="white"/>
</clipPath>
</defs>
</svg>
