<svg width="18" height="20" viewBox="0 0 18 20" fill="none" xmlns="http://www.w3.org/2000/svg">
<g clip-path="url(#clip0_997_67)">
<path fill-rule="evenodd" clip-rule="evenodd" d="M6.44857 10.5111C6.21094 10.5111 6.01888 10.2816 6.01888 10C6.01888 9.7168 6.21094 9.48893 6.44857 9.48893H12.1273C12.3649 9.48893 12.557 9.71842 12.557 10C12.557 10.2832 12.3649 10.5111 12.1273 10.5111H6.44857ZM7.61231 18.9746C7.89551 18.9746 8.125 19.2041 8.125 19.4873C8.125 19.7705 7.89551 20 7.61231 20H1.19303C0.864258 20 0.566406 19.8665 0.349935 19.6501C0.133464 19.4336 0 19.1357 0 18.807V1.19303C0 0.864258 0.133464 0.566406 0.349935 0.349935C0.566406 0.133464 0.864258 0 1.19303 0H15.8447C16.1735 0 16.4714 0.135091 16.6878 0.349935C16.9043 0.566406 17.0378 0.864258 17.0378 1.19303V9.35384C17.0378 9.63704 16.8083 9.86654 16.5251 9.86654C16.2419 9.86654 16.0124 9.63704 16.0124 9.35384V1.19303C16.0124 1.14746 15.9928 1.10514 15.9619 1.07585C15.931 1.04492 15.8903 1.02539 15.8447 1.02539H1.19303C1.14746 1.02539 1.10514 1.04492 1.07422 1.07422C1.04492 1.10677 1.02539 1.14746 1.02539 1.19303V18.8053C1.02539 18.8509 1.04492 18.8932 1.07422 18.9225C1.10514 18.9535 1.14746 18.973 1.19303 18.973H7.61231V18.9746ZM16.0645 12.0996C15.9814 12.0199 15.8854 11.9824 15.7747 11.984C15.6641 11.9857 15.5697 12.028 15.4915 12.111L14.8551 12.7734L16.6406 14.4971L17.2835 13.8281C17.36 13.75 17.3926 13.6491 17.391 13.5384C17.3893 13.4294 17.3503 13.3301 17.2721 13.2552L16.0645 12.0996ZM12.7295 18.5563C12.4935 18.6312 12.2591 18.7093 12.0247 18.7858C11.7887 18.8639 11.5544 18.9437 11.32 19.0218C10.765 19.2041 10.4541 19.305 10.389 19.3229C10.3255 19.3424 10.363 19.082 10.5029 18.54L10.944 16.8392L14.2887 13.3594L16.0726 15.0765L12.7295 18.5563ZM6.44857 14.152C6.21094 14.152 6.01725 13.9193 6.01725 13.6328C6.01725 13.3464 6.21094 13.1136 6.44857 13.1136H9.24642C9.48405 13.1136 9.67773 13.3464 9.67773 13.6328C9.67773 13.9193 9.48405 14.152 9.24642 14.152H6.44857ZM6.44857 6.87826C6.21094 6.87826 6.01888 6.64876 6.01888 6.36719C6.01888 6.08398 6.21094 5.85612 6.44857 5.85612H12.1273C12.3649 5.85612 12.557 6.08561 12.557 6.36719C12.557 6.65039 12.3649 6.87826 12.1273 6.87826H6.44857ZM3.98438 12.9329C4.31966 12.9329 4.58984 13.2048 4.58984 13.5384C4.58984 13.8737 4.31803 14.1439 3.98438 14.1439C3.64909 14.1439 3.37891 13.8721 3.37891 13.5384C3.37891 13.2048 3.65072 12.9329 3.98438 12.9329ZM3.98438 9.34896C4.31966 9.34896 4.58984 9.62077 4.58984 9.95443C4.58984 10.2897 4.31803 10.5599 3.98438 10.5599C3.64909 10.5599 3.37891 10.2881 3.37891 9.95443C3.37891 9.62077 3.65072 9.34896 3.98438 9.34896ZM3.98438 5.76497C4.31966 5.76497 4.58984 6.03678 4.58984 6.37044C4.58984 6.70573 4.31803 6.97591 3.98438 6.97591C3.64909 6.97591 3.37891 6.7041 3.37891 6.37044C3.37891 6.03516 3.65072 5.76497 3.98438 5.76497Z" fill="#151B25"/>
</g>
<defs>
<clipPath id="clip0_997_67">
<rect width="17.3926" height="20" fill="white"/>
</clipPath>
</defs>
</svg>
