<svg width="20" height="20" viewBox="0 0 20 20" fill="none" xmlns="http://www.w3.org/2000/svg">
<path fill-rule="evenodd" clip-rule="evenodd" d="M13.5683 8.93252C13.6265 8.99058 13.6727 9.05954 13.7042 9.13548C13.7357 9.21141 13.7519 9.29281 13.7519 9.37502C13.7519 9.45723 13.7357 9.53863 13.7042 9.61456C13.6727 9.69049 13.6265 9.75946 13.5683 9.81752L9.81829 13.5675C9.76023 13.6257 9.69126 13.6719 9.61533 13.7034C9.5394 13.7349 9.458 13.7511 9.37579 13.7511C9.29358 13.7511 9.21218 13.7349 9.13625 13.7034C9.06032 13.6719 8.99135 13.6257 8.93329 13.5675L7.05829 11.6925C7.00018 11.6344 6.95408 11.5654 6.92264 11.4895C6.89119 11.4136 6.875 11.3322 6.875 11.25C6.875 11.1678 6.89119 11.0865 6.92264 11.0105C6.95408 10.9346 7.00018 10.8656 7.05829 10.8075C7.17565 10.6902 7.33482 10.6242 7.50079 10.6242C7.58297 10.6242 7.66435 10.6404 7.74027 10.6719C7.81619 10.7033 7.88518 10.7494 7.94329 10.8075L9.37579 12.2413L12.6833 8.93252C12.7413 8.87431 12.8103 8.82814 12.8862 8.79663C12.9622 8.76512 13.0436 8.7489 13.1258 8.7489C13.208 8.7489 13.2894 8.76512 13.3653 8.79663C13.4413 8.82814 13.5102 8.87431 13.5683 8.93252Z" fill="white"/>
<path d="M5 1.875H3.75C3.08696 1.875 2.45107 2.13839 1.98223 2.60723C1.51339 3.07607 1.25 3.71196 1.25 4.375V17.5C1.25 18.163 1.51339 18.7989 1.98223 19.2678C2.45107 19.7366 3.08696 20 3.75 20H16.25C16.913 20 17.5489 19.7366 18.0178 19.2678C18.4866 18.7989 18.75 18.163 18.75 17.5V4.375C18.75 3.71196 18.4866 3.07607 18.0178 2.60723C17.5489 2.13839 16.913 1.875 16.25 1.875H15V3.125H16.25C16.5815 3.125 16.8995 3.2567 17.1339 3.49112C17.3683 3.72554 17.5 4.04348 17.5 4.375V17.5C17.5 17.8315 17.3683 18.1495 17.1339 18.3839C16.8995 18.6183 16.5815 18.75 16.25 18.75H3.75C3.41848 18.75 3.10054 18.6183 2.86612 18.3839C2.6317 18.1495 2.5 17.8315 2.5 17.5V4.375C2.5 4.04348 2.6317 3.72554 2.86612 3.49112C3.10054 3.2567 3.41848 3.125 3.75 3.125H5V1.875Z" fill="white"/>
<path d="M11.875 1.25C12.0408 1.25 12.1997 1.31585 12.3169 1.43306C12.4342 1.55027 12.5 1.70924 12.5 1.875V3.125C12.5 3.29076 12.4342 3.44973 12.3169 3.56694C12.1997 3.68415 12.0408 3.75 11.875 3.75H8.125C7.95924 3.75 7.80027 3.68415 7.68306 3.56694C7.56585 3.44973 7.5 3.29076 7.5 3.125V1.875C7.5 1.70924 7.56585 1.55027 7.68306 1.43306C7.80027 1.31585 7.95924 1.25 8.125 1.25H11.875ZM8.125 0C7.62772 0 7.15081 0.197544 6.79917 0.549175C6.44754 0.900805 6.25 1.37772 6.25 1.875V3.125C6.25 3.62228 6.44754 4.09919 6.79917 4.45083C7.15081 4.80246 7.62772 5 8.125 5H11.875C12.3723 5 12.8492 4.80246 13.2008 4.45083C13.5525 4.09919 13.75 3.62228 13.75 3.125V1.875C13.75 1.37772 13.5525 0.900805 13.2008 0.549175C12.8492 0.197544 12.3723 0 11.875 0L8.125 0Z" fill="white"/>
</svg>
