<svg width="18" height="19" viewBox="0 0 18 19" fill="none" xmlns="http://www.w3.org/2000/svg">
<path d="M9.00342 15.498C5.69592 15.498 3.00342 12.8055 3.00342 9.49805C3.00342 6.19055 5.69592 3.49805 9.00342 3.49805C12.3109 3.49805 15.0034 6.19055 15.0034 9.49805C15.0034 12.8055 12.3109 15.498 9.00342 15.498ZM9.00342 1.99805C8.0185 1.99805 7.04323 2.19204 6.13329 2.56895C5.22335 2.94586 4.39656 3.49831 3.70012 4.19475C2.29359 5.60127 1.50342 7.50892 1.50342 9.49805C1.50342 11.4872 2.29359 13.3948 3.70012 14.8013C4.39656 15.4978 5.22335 16.0502 6.13329 16.4271C7.04323 16.8041 8.0185 16.998 9.00342 16.998C10.9925 16.998 12.9002 16.2079 14.3067 14.8013C15.7132 13.3948 16.5034 11.4872 16.5034 9.49805C16.5034 8.51313 16.3094 7.53786 15.9325 6.62792C15.5556 5.71798 15.0032 4.89119 14.3067 4.19475C13.6103 3.49831 12.7835 2.94586 11.8735 2.56895C10.9636 2.19204 9.98833 1.99805 9.00342 1.99805ZM5.25342 10.248H12.7534V8.74805H5.25342" fill="#CC1E29"/>
</svg>
