<svg width="33" height="25" viewBox="0 0 33 25" fill="none" xmlns="http://www.w3.org/2000/svg">
<path d="M29.3138 14.3764C29.1844 14.2854 29.0464 14.2535 28.8969 14.2797C28.7473 14.3058 28.6265 14.3829 28.5374 14.5121L28.0488 15.2046C27.8723 15.1296 27.6888 15.0692 27.4993 15.0198C27.3097 14.9704 27.1186 14.9322 26.9273 14.9042L26.7691 13.9973C26.7424 13.8441 26.6677 13.7247 26.543 13.6366C26.418 13.5487 26.28 13.5192 26.127 13.5458L24.9888 13.7443C24.8432 13.7699 24.7255 13.8441 24.634 13.9696C24.5446 14.0948 24.5127 14.2331 24.5396 14.3861L24.6845 15.2166C24.502 15.2945 24.3268 15.3829 24.1619 15.483C23.9946 15.5832 23.8385 15.6911 23.6934 15.8069L22.9256 15.2755C22.804 15.185 22.6694 15.1508 22.518 15.1774C22.3688 15.2033 22.2498 15.2817 22.1586 15.4093L21.5008 16.347C21.4098 16.4764 21.3782 16.6145 21.4044 16.7638C21.4305 16.9133 21.5076 17.0343 21.6365 17.1235L22.3293 17.6121C22.2543 17.7886 22.1939 17.9721 22.1442 18.1616C22.0948 18.3511 22.0569 18.5422 22.0286 18.7336L21.1217 18.8918C20.9688 18.9184 20.8491 18.9929 20.7612 19.1179C20.6734 19.2429 20.6436 19.3809 20.6703 19.5338L20.8689 20.6721C20.8943 20.8177 20.9686 20.9354 21.094 21.0268C21.2193 21.1163 21.3576 21.1482 21.5108 21.1212L22.341 20.9764C22.419 21.1589 22.5073 21.3338 22.6074 21.499C22.7078 21.6663 22.8166 21.826 22.9334 21.9784L22.3999 22.7353C22.3094 22.8568 22.2754 22.9915 22.3018 23.1428C22.328 23.2921 22.4061 23.4111 22.5337 23.5023L23.4735 24.171C23.6016 24.2544 23.7392 24.2827 23.8884 24.2565C24.0377 24.2304 24.1595 24.1572 24.25 24.0356L24.7368 23.3316C24.913 23.4066 25.0965 23.467 25.2863 23.5164C25.4756 23.5661 25.6667 23.604 25.8583 23.632L26.0162 24.5391C26.0429 24.6921 26.1176 24.8118 26.2423 24.8996C26.3673 24.9872 26.5053 25.0173 26.6583 24.9906L27.7965 24.7919C27.9421 24.7666 28.0598 24.6921 28.1513 24.5668C28.2409 24.4416 28.2726 24.3033 28.2456 24.1501L28.1008 23.3196C28.2833 23.2417 28.4584 23.1536 28.6237 23.0534C28.7907 22.953 28.9504 22.8443 29.1031 22.7274L29.8597 23.261C29.9815 23.3515 30.118 23.3852 30.2709 23.3583C30.4259 23.3311 30.5428 23.2534 30.6267 23.1269L31.2954 22.1873C31.3786 22.0592 31.4068 21.9217 31.3809 21.7724C31.3545 21.6232 31.2813 21.5013 31.16 21.4109L30.456 20.9244C30.531 20.7476 30.5914 20.5641 30.6408 20.3746C30.6902 20.1853 30.7282 19.994 30.7564 19.8026L31.6633 19.6447C31.8162 19.6178 31.9359 19.5433 32.0238 19.4183C32.1119 19.2933 32.1414 19.1556 32.1148 19.0024L31.9163 17.8641C31.8907 17.7185 31.8165 17.6006 31.691 17.5093C31.5658 17.4194 31.4275 17.388 31.2745 17.4147L30.444 17.5595C30.3674 17.3844 30.2793 17.2113 30.1786 17.0424C30.0775 16.8717 29.9692 16.7136 29.8537 16.5685L30.3852 15.8009C30.4756 15.6791 30.5096 15.5445 30.4832 15.3931C30.4571 15.2438 30.3789 15.1249 30.2513 15.0336L29.3138 14.3764ZM26.0068 17.0576C26.31 17.0045 26.6068 17.0116 26.8988 17.079C27.189 17.1486 27.4517 17.2647 27.6859 17.4278C27.9189 17.593 28.117 17.8008 28.2807 18.0505C28.4428 18.3025 28.5499 18.5791 28.6028 18.8826C28.6558 19.1861 28.6485 19.4829 28.5813 19.7746C28.5118 20.0651 28.3954 20.3273 28.232 20.5618C28.0671 20.795 27.8595 20.9929 27.6096 21.1565C27.3578 21.3186 27.0812 21.4258 26.7777 21.4789C26.4742 21.5317 26.1775 21.5246 25.8857 21.4572C25.5953 21.3876 25.3328 21.2715 25.0986 21.1082C24.8654 20.9429 24.6675 20.7354 24.5038 20.4857C24.3417 20.2337 24.2346 19.9571 24.1815 19.6536C24.1287 19.3501 24.1357 19.0533 24.2032 18.7616C24.2727 18.4711 24.3888 18.2087 24.5522 17.9742C24.7172 17.7415 24.925 17.5433 25.1747 17.3797C25.4269 17.2176 25.7033 17.1104 26.0068 17.0576ZM17.2576 3.54391C17.2105 3.49659 17.1666 3.46469 17.1264 3.4477C17.0882 3.43149 17.0401 3.42365 16.9823 3.42365C16.9235 3.42365 16.8746 3.43202 16.8351 3.44849C16.7933 3.466 16.7512 3.49633 16.7094 3.5392L16.7044 3.54391L15.6137 4.63118C15.3983 4.84555 15.065 4.86908 14.8237 4.70229C14.7011 4.6236 14.5696 4.54674 14.4305 4.47145C14.2789 4.38962 14.1333 4.31721 13.9926 4.2529C13.8444 4.18519 13.6922 4.12114 13.537 4.06075C13.4013 4.00794 13.2444 3.95226 13.0685 3.89448C12.8068 3.80821 12.6405 3.56482 12.6408 3.30339L12.6405 1.63078C12.6405 1.56987 12.6316 1.51758 12.6139 1.47419C12.5969 1.4321 12.5692 1.39236 12.5315 1.35419L12.5305 1.35524C12.491 1.31602 12.4513 1.28805 12.4115 1.27184C12.3681 1.25407 12.3158 1.24544 12.2549 1.24544H10.1564C10.101 1.24544 10.054 1.25328 10.0153 1.26949C9.97188 1.28727 9.92744 1.31838 9.88169 1.36256C9.84456 1.39994 9.81738 1.43863 9.80064 1.47863C9.78313 1.52046 9.77424 1.57092 9.77424 1.63026V3.16118C9.77424 3.46757 9.55307 3.7222 9.26158 3.77422C9.09636 3.8137 8.9463 3.8537 8.8135 3.89448C8.66317 3.94049 8.51102 3.9933 8.35704 4.05317C8.21169 4.10911 8.06294 4.17238 7.91105 4.24244C7.75864 4.31303 7.61825 4.38309 7.49093 4.45263C7.24519 4.58648 6.94847 4.53707 6.75894 4.35015L6.75868 4.35041L5.55088 3.16013C5.54592 3.15516 5.54121 3.15046 5.5365 3.14549C5.4986 3.10549 5.46043 3.07674 5.42252 3.06027C5.38775 3.0451 5.34305 3.03726 5.28789 3.03726C5.23299 3.03726 5.18593 3.04589 5.14619 3.06262C5.09992 3.08223 5.05443 3.11412 5.00999 3.15752L3.54338 4.62752L3.54234 4.62857L3.54338 4.62988C3.49633 4.67693 3.46443 4.72059 3.44744 4.76085C3.43123 4.79902 3.42339 4.84712 3.42339 4.9049C3.42339 4.96346 3.43149 5.01261 3.44822 5.05208C3.466 5.09391 3.49607 5.136 3.53894 5.17783L3.54365 5.18279L4.63092 6.27347C4.84529 6.48915 4.86882 6.8222 4.70203 7.06376C4.62334 7.18611 4.54648 7.31761 4.47119 7.45695C4.38936 7.60832 4.31695 7.75393 4.25264 7.89458C4.18467 8.04307 4.12062 8.19522 4.06049 8.35051C4.00768 8.48645 3.95199 8.64331 3.89396 8.81898C3.80769 9.08067 3.5643 9.24694 3.30287 9.24694V9.2472H1.63104C1.56987 9.2472 1.51758 9.25609 1.47445 9.27361C1.4321 9.29086 1.39262 9.31779 1.35576 9.35491L1.35341 9.35726C1.31655 9.39412 1.28936 9.4336 1.2721 9.47595C1.25459 9.51935 1.2457 9.57163 1.2457 9.63255V11.7313C1.2457 11.7864 1.2538 11.8335 1.26975 11.8725C1.28753 11.9156 1.31864 11.96 1.36308 12.006L1.3636 12.0066C1.40099 12.0434 1.43968 12.0704 1.47916 12.0868C1.52098 12.1041 1.57144 12.113 1.63104 12.113H3.1617C3.46809 12.113 3.72272 12.3344 3.77475 12.6259C3.81396 12.7903 3.8537 12.9393 3.89448 13.0719L3.895 13.0716C3.94337 13.2295 3.99618 13.3825 4.05369 13.5304C4.10911 13.6742 4.17316 13.8264 4.24532 13.9866C4.31982 14.1513 4.39093 14.2982 4.45812 14.4271C4.587 14.6739 4.53341 14.9675 4.3457 15.1542L4.34623 15.1544L3.15569 16.3416L3.14575 16.3512H3.14601C3.10602 16.3894 3.07726 16.427 3.06079 16.4652C3.04563 16.5 3.03778 16.5447 3.03778 16.5998C3.03778 16.6545 3.04641 16.7018 3.06314 16.7413C3.08301 16.7883 3.11569 16.8343 3.16039 16.8798L4.61602 18.3524C4.65916 18.3919 4.70281 18.4207 4.747 18.4379C4.7917 18.4555 4.84477 18.4646 4.90568 18.4646C4.96738 18.4646 5.02123 18.4557 5.06724 18.4374C5.11038 18.4204 5.15168 18.3938 5.19064 18.3572L6.26902 17.2618C6.48366 17.0435 6.82011 17.0173 7.06402 17.1857C7.18637 17.2641 7.31813 17.3413 7.45747 17.4165C7.6091 17.4984 7.75471 17.5708 7.8951 17.6351C8.04359 17.7031 8.19574 17.7671 8.35103 17.8272C8.48671 17.8801 8.64383 17.9357 8.81951 17.9935C9.0812 18.0798 9.24746 18.3234 9.24746 18.5849L9.24773 20.2569C9.24773 20.3176 9.25661 20.3701 9.27439 20.4135C9.29165 20.4559 9.31857 20.4954 9.35543 20.5322L9.35648 20.5335L9.35779 20.5322C9.43151 20.606 9.52275 20.6423 9.63307 20.6423H11.7315C11.7867 20.6423 11.834 20.6344 11.8727 20.6182C11.9159 20.6005 11.9603 20.5691 12.0063 20.5249C12.0434 20.4873 12.0704 20.4486 12.0871 20.4088C12.1046 20.367 12.1135 20.3163 12.1135 20.2572V18.7263C12.1135 18.4196 12.3349 18.165 12.6261 18.113C12.7914 18.0738 12.9414 18.0335 13.0742 17.9927C13.2246 17.9467 13.3767 17.8939 13.5307 17.8343C13.6745 17.7789 13.8266 17.7148 13.9869 17.6427C14.1516 17.5682 14.2988 17.4971 14.4274 17.4301C14.6742 17.3013 14.9678 17.3548 15.1544 17.5425L15.1547 17.542L16.3418 18.7326L16.3512 18.7425L16.3515 18.7422C16.3899 18.7828 16.4278 18.8115 16.4649 18.8275C16.5002 18.8429 16.5473 18.8505 16.6069 18.8505C16.6644 18.8505 16.7125 18.8418 16.7517 18.8249C16.792 18.8076 16.8299 18.7799 16.8657 18.7422C16.8736 18.7341 16.8817 18.726 16.8898 18.7182L18.3532 17.272C18.3925 17.2291 18.4212 17.1854 18.4385 17.141C18.456 17.0963 18.4651 17.0435 18.4651 16.9826C18.4651 16.9206 18.456 16.8668 18.4379 16.821C18.4209 16.7776 18.3943 16.7366 18.3579 16.6976L17.2623 15.619C17.044 15.4043 17.0179 15.0676 17.1862 14.824C17.2649 14.7014 17.3418 14.5699 17.4171 14.4308C17.4989 14.2792 17.5713 14.1335 17.6356 13.9926C17.7036 13.8444 17.7676 13.6922 17.8278 13.537C17.8806 13.4013 17.9363 13.2442 17.9943 13.0685C18.0806 12.8065 18.3242 12.6405 18.5856 12.6405L20.2575 12.6403C20.3186 12.6403 20.3709 12.6316 20.4143 12.6136C20.4567 12.5966 20.4962 12.5694 20.533 12.5326L20.5343 12.5315L20.533 12.5302C20.6067 12.4565 20.6431 12.365 20.6431 12.2549V10.1564C20.6431 10.101 20.635 10.054 20.619 10.0153C20.6012 9.97214 20.5699 9.9277 20.5257 9.88169L20.5252 9.8809C20.4878 9.84404 20.4494 9.81738 20.4096 9.80064C20.3681 9.78313 20.3173 9.7745 20.2577 9.7745H18.7271C18.417 9.7745 18.16 9.54784 18.1122 9.25139C18.0774 9.11335 18.0382 8.97244 17.9938 8.82892C17.9491 8.68513 17.8957 8.53063 17.8325 8.36515C17.8286 8.35469 17.8249 8.34423 17.8215 8.33378C17.7637 8.18267 17.7052 8.04176 17.6456 7.91131C17.5794 7.76648 17.5093 7.62635 17.4354 7.49093C17.3015 7.24519 17.3512 6.94847 17.5378 6.75894L18.7281 5.55115C18.7331 5.54618 18.7378 5.54147 18.743 5.53677L18.7428 5.5365C18.7828 5.4986 18.8115 5.46069 18.828 5.42278C18.8431 5.38801 18.851 5.34331 18.851 5.28815C18.851 5.23325 18.8424 5.18619 18.8254 5.14646C18.8058 5.10044 18.7741 5.05496 18.7305 5.01025L17.2605 3.54391L17.2592 3.5426L17.2576 3.54391ZM17.6082 2.30396C17.8058 2.38761 17.9825 2.50709 18.1383 2.6629L18.137 2.6642L19.6083 4.13212L19.6133 4.13709C19.7681 4.29446 19.887 4.46884 19.9683 4.65994C20.0528 4.85862 20.0959 5.06777 20.0959 5.28815C20.0959 5.51167 20.052 5.72186 19.9657 5.91923C19.8815 6.11243 19.7595 6.2834 19.6013 6.43398L18.7352 7.31238C18.7483 7.33983 18.7611 7.3678 18.7736 7.39551C18.8497 7.56257 18.9195 7.72831 18.9825 7.89301C18.9867 7.90242 18.9906 7.91236 18.9945 7.92229C19.0586 8.09013 19.1203 8.27129 19.1801 8.46397L19.2 8.5288H20.2569C20.4799 8.5288 20.6888 8.57011 20.8857 8.65246C21.0789 8.7335 21.2527 8.85192 21.408 9.008L21.4203 9.02028C21.5722 9.1774 21.6872 9.35151 21.7667 9.54314C21.8477 9.73921 21.888 9.94338 21.888 10.1564V12.2552C21.888 12.7093 21.7314 13.0925 21.413 13.411L21.4119 13.4096C21.253 13.5683 21.0763 13.6873 20.8807 13.7668C20.6859 13.8465 20.4784 13.8857 20.2569 13.8857H19.0241C19.0118 13.9181 18.999 13.9511 18.9859 13.9843C18.9182 14.1586 18.8445 14.3333 18.7645 14.5084C18.6811 14.6909 18.5966 14.8621 18.5117 15.0193C18.5017 15.0378 18.4915 15.0569 18.4808 15.0757L19.2308 15.8137C19.2392 15.8216 19.2473 15.8299 19.2557 15.8383C19.4063 15.9973 19.5197 16.1742 19.5961 16.368C19.6727 16.5622 19.7106 16.7674 19.7106 16.9823C19.7106 17.1962 19.6724 17.4001 19.5963 17.5933C19.5205 17.7862 19.4086 17.9619 19.2604 18.1213L19.2601 18.1211C19.2541 18.1276 19.2476 18.1344 19.241 18.1407L17.7637 19.601C17.6108 19.7615 17.4377 19.8847 17.2435 19.9683C17.0471 20.0528 16.8351 20.0959 16.6072 20.0959C16.3842 20.0959 16.1735 20.052 15.974 19.9657C15.7763 19.8805 15.6025 19.7574 15.4517 19.5984L14.59 18.7341C14.5589 18.7488 14.5283 18.7626 14.4982 18.7762C14.3385 18.8481 14.1654 18.9205 13.9788 18.9924C13.806 19.0596 13.6243 19.1221 13.4347 19.1801C13.4094 19.188 13.3843 19.1958 13.3592 19.2031V20.2575C13.3592 20.4802 13.3179 20.6893 13.2355 20.8857C13.1545 21.0791 13.0358 21.253 12.8797 21.4083L12.8674 21.4206C12.7103 21.5722 12.5362 21.6875 12.3449 21.7667C12.1488 21.848 11.9449 21.8883 11.7315 21.8883H9.63359C9.17949 21.8883 8.79598 21.7314 8.47756 21.4135L8.47861 21.4122C8.31992 21.2532 8.20097 21.0765 8.1215 20.881C8.04202 20.6862 8.00255 20.4786 8.00255 20.2575V19.0241C7.97013 19.0118 7.93745 18.999 7.90399 18.9862C7.72988 18.9182 7.55525 18.8445 7.38035 18.7645C7.19761 18.6811 7.02664 18.5966 6.86926 18.5117C6.85044 18.5015 6.83162 18.4913 6.81305 18.4808L6.07478 19.2306C6.06694 19.2392 6.05858 19.2473 6.05021 19.2557C5.89126 19.4063 5.71401 19.5197 5.52056 19.5961C5.32632 19.6727 5.1211 19.7106 4.90647 19.7106C4.6921 19.7106 4.48844 19.6727 4.29525 19.5966C4.10232 19.5208 3.92664 19.4086 3.76743 19.2604L3.76769 19.2601C3.76089 19.2541 3.75436 19.2476 3.74782 19.241L2.2752 17.7517C2.12044 17.5938 2.00175 17.4197 1.92018 17.2286C1.83548 17.0302 1.79261 16.8207 1.79261 16.6006C1.79261 16.3771 1.83653 16.1669 1.9228 15.9698C2.00776 15.7753 2.13063 15.6035 2.2901 15.4522L3.15438 14.5903C3.13974 14.5594 3.12588 14.5288 3.11229 14.4985C3.04014 14.3388 2.96798 14.1657 2.89609 13.9793C2.82629 13.8002 2.76407 13.6196 2.70812 13.4376L2.70865 13.4374L2.70812 13.4353L2.68538 13.3597H1.63104C1.40831 13.3597 1.19917 13.3187 1.00257 13.2363C0.809117 13.1553 0.635268 13.0366 0.47998 12.8808L0.467693 12.8682C0.315804 12.7111 0.200776 12.537 0.121564 12.3456C0.0402598 12.1493 0 11.9449 0 11.7321V9.63333C0 9.41216 0.0394755 9.20459 0.118949 9.00983C0.198423 8.81506 0.316588 8.63886 0.47449 8.48044L0.475013 8.47991L0.476059 8.47887L0.477105 8.47756C0.63553 8.31966 0.811993 8.20097 1.00702 8.1215C1.20204 8.04202 1.40962 8.00255 1.63078 8.00255H2.8642C2.87648 7.97013 2.88929 7.93745 2.90236 7.90399C2.97007 7.72988 3.0438 7.55525 3.12379 7.38009C3.20719 7.19761 3.29137 7.02664 3.37633 6.86926C3.38731 6.84913 3.39829 6.82874 3.40927 6.80861L2.66342 6.06067C2.5063 5.90512 2.38657 5.72918 2.30422 5.53494C2.21926 5.33416 2.17717 5.12423 2.17717 4.9062C2.17717 4.68896 2.21926 4.4806 2.30344 4.28061C2.38683 4.08297 2.5063 3.90624 2.66237 3.75043L2.66342 3.75148L4.13133 2.28017L4.1363 2.2752C4.29368 2.12044 4.46779 2.00149 4.65916 1.91992C4.85784 1.83548 5.06698 1.79234 5.28736 1.79234C5.51089 1.79234 5.72081 1.83626 5.91819 1.92254C6.11138 2.00698 6.28236 2.1288 6.43294 2.28697L7.31003 3.15177C7.33669 3.13896 7.3631 3.12667 7.3895 3.11438C7.5508 3.03988 7.7236 2.9672 7.90843 2.89609C8.08124 2.8289 8.26293 2.76616 8.45246 2.70812C8.47782 2.70054 8.50292 2.6927 8.52802 2.68538V1.63078C8.52802 1.40805 8.56932 1.19891 8.65141 1.00231C8.73245 0.809117 8.85114 0.635007 9.00695 0.479719L9.0195 0.467432C9.17662 0.315543 9.35073 0.200515 9.54235 0.121302C9.73921 0.0402598 9.94338 0 10.1564 0H12.2552C12.4761 0 12.6839 0.0394755 12.8787 0.118949C13.0771 0.199992 13.2546 0.318418 13.411 0.474752L13.4099 0.476059L13.411 0.477105C13.5689 0.634745 13.6873 0.811209 13.767 1.00702C13.8465 1.20178 13.886 1.40962 13.886 1.63052V2.8642C13.9184 2.87648 13.9513 2.88929 13.9845 2.9021C14.1586 2.96981 14.3333 3.04354 14.5084 3.12353C14.6912 3.20719 14.8621 3.29137 15.0193 3.37633L15.0799 3.40927L15.8278 2.66342C15.9837 2.50604 16.1593 2.38657 16.3536 2.30422C16.5546 2.21926 16.7643 2.17743 16.9823 2.17743C17.1996 2.17795 17.4082 2.21978 17.6082 2.30396ZM10.9441 6.20994C11.2667 6.20994 11.5815 6.24079 11.8894 6.30223C12.1906 6.36235 12.4902 6.45542 12.7882 6.58117L12.7924 6.583L12.7932 6.58117C13.0748 6.70247 13.343 6.84861 13.5976 7.01906C13.8496 7.18768 14.0826 7.378 14.2961 7.58975L14.2988 7.59237C14.5108 7.80622 14.7011 8.03941 14.8697 8.29142C15.0402 8.54605 15.186 8.81428 15.3076 9.09558C15.3149 9.11283 15.3217 9.13035 15.3275 9.14786C15.4433 9.43046 15.5296 9.71411 15.5866 9.99907C15.648 10.3068 15.6788 10.6218 15.6788 10.9444C15.6788 11.267 15.648 11.582 15.5866 11.8894C15.5264 12.1906 15.4334 12.4902 15.3076 12.7885L15.3058 12.7927L15.3076 12.7932C15.1863 13.0745 15.0402 13.3427 14.8697 13.5974C14.7011 13.8494 14.5108 14.0823 14.2988 14.2961L14.2961 14.2988C14.0826 14.5105 13.8496 14.7008 13.5974 14.8697C13.3427 15.0399 13.0748 15.186 12.7932 15.3076C12.7759 15.3149 12.7587 15.3217 12.7409 15.3272C12.4583 15.443 12.1747 15.5293 11.8894 15.5863C11.5817 15.6477 11.2667 15.6786 10.9441 15.6786C10.6215 15.6786 10.3068 15.648 9.99907 15.5863C9.6979 15.5264 9.39831 15.4334 9.10028 15.3076L9.0961 15.3058L9.09531 15.3076C8.81402 15.186 8.54579 15.0402 8.29116 14.8697C8.03915 14.7008 7.80622 14.5105 7.59263 14.2988L7.59028 14.2961C7.37826 14.0826 7.18794 13.8494 7.01932 13.5974C6.84887 13.3427 6.70299 13.0748 6.58169 12.7932C6.57411 12.7762 6.56757 12.7584 6.56182 12.7412C6.44601 12.4586 6.35974 12.1747 6.30249 11.8894C6.24105 11.582 6.2102 11.267 6.2102 10.9444C6.2102 10.6218 6.24105 10.307 6.30249 9.99907C6.36262 9.6979 6.45568 9.39831 6.58143 9.10028L6.583 9.0961L6.58143 9.09558C6.70273 8.81402 6.84861 8.54605 7.01906 8.29142C7.18794 8.03941 7.378 7.80648 7.59002 7.59237L7.59237 7.59002C7.80595 7.37826 8.03889 7.18794 8.2909 7.01932C8.54579 6.84887 8.81376 6.70273 9.09531 6.58143C9.11283 6.57385 9.13034 6.56731 9.14812 6.56156C9.43046 6.44601 9.71411 6.35948 9.99907 6.30249C10.3065 6.24079 10.6215 6.20994 10.9441 6.20994ZM11.6461 7.52335C11.4197 7.47839 11.1857 7.45564 10.9441 7.45564C10.7026 7.45564 10.4686 7.47839 10.2422 7.52335C10.0244 7.56675 9.8179 7.62818 9.62261 7.70766C9.61085 7.71341 9.59882 7.71916 9.58653 7.72439C9.36563 7.81981 9.16381 7.92856 8.98159 8.05065C8.79729 8.17404 8.62657 8.31365 8.46893 8.46972C8.31339 8.62684 8.17378 8.79781 8.05039 8.98212C7.92856 9.16433 7.81981 9.36615 7.72439 9.5868L7.72256 9.58601C7.63577 9.79254 7.56936 10.0111 7.52335 10.2425C7.47812 10.4689 7.45538 10.7028 7.45538 10.9444C7.45538 11.1859 7.47786 11.4199 7.52335 11.6463C7.56675 11.8638 7.62818 12.0704 7.7074 12.2656C7.71341 12.2774 7.7189 12.2894 7.72439 12.302C7.81955 12.5229 7.9283 12.7242 8.05039 12.9067C8.17378 13.091 8.31339 13.2617 8.46946 13.4193C8.62684 13.5751 8.79755 13.7147 8.98185 13.8381C9.16407 13.9602 9.36589 14.069 9.58653 14.1641L9.58575 14.166C9.79202 14.2525 10.0106 14.3192 10.2419 14.3654C10.4683 14.4104 10.702 14.4331 10.9439 14.4331C11.1854 14.4331 11.4194 14.4104 11.6458 14.3654C11.8636 14.322 12.0698 14.2606 12.2651 14.1814C12.2771 14.1754 12.2892 14.1696 12.3015 14.1644C12.5224 14.0692 12.7239 13.9605 12.9061 13.8386C13.0904 13.715 13.2614 13.5754 13.4188 13.4196C13.5746 13.2622 13.7142 13.0912 13.8379 12.9067C13.9597 12.7247 14.0684 12.5229 14.1636 12.3022L14.1654 12.3028C14.2522 12.0965 14.3186 11.8779 14.3649 11.6466C14.4101 11.4202 14.4329 11.1862 14.4329 10.9446C14.4329 10.7031 14.4101 10.4691 14.3649 10.2427C14.3215 10.0249 14.2601 9.81868 14.1809 9.6234C14.1748 9.61163 14.1691 9.59961 14.1639 9.58706C14.0687 9.36641 13.96 9.16459 13.8379 8.98238C13.7145 8.79781 13.5749 8.6271 13.4193 8.46998C13.2619 8.31391 13.091 8.1743 12.9067 8.05091C12.7242 7.92883 12.5226 7.82007 12.3017 7.72465L12.3025 7.72282C12.0962 7.63603 11.8777 7.56962 11.6461 7.52335Z" fill="#151B25"/>
</svg>
