<svg width="20" height="20" viewBox="0 0 20 20" fill="none" xmlns="http://www.w3.org/2000/svg">
<g clip-path="url(#clip0_997_426)">
<path d="M3.3335 5.83337C2.83904 5.83337 2.35569 5.68675 1.94457 5.41205C1.53345 5.13735 1.21302 4.7469 1.0238 4.29008C0.834579 3.83327 0.785071 3.3306 0.881534 2.84565C0.977997 2.3607 1.2161 1.91524 1.56573 1.56561C1.91536 1.21598 2.36082 0.977875 2.84577 0.881412C3.33072 0.784949 3.83339 0.834457 4.29021 1.02368C4.74702 1.2129 5.13747 1.53333 5.41217 1.94445C5.68687 2.35557 5.8335 2.83892 5.8335 3.33338C5.8335 3.99642 5.57011 4.6323 5.10126 5.10114C4.63242 5.56998 3.99654 5.83337 3.3335 5.83337ZM3.3335 2.50004C3.16868 2.50004 3.00756 2.54892 2.87052 2.64048C2.73348 2.73205 2.62667 2.8622 2.5636 3.01447C2.50052 3.16674 2.48402 3.3343 2.51618 3.49595C2.54833 3.6576 2.6277 3.80609 2.74424 3.92263C2.86079 4.03917 3.00927 4.11854 3.17092 4.1507C3.33257 4.18285 3.50013 4.16635 3.6524 4.10327C3.80467 4.0402 3.93482 3.93339 4.02639 3.79635C4.11796 3.65931 4.16683 3.49819 4.16683 3.33338C4.16683 3.11236 4.07903 2.9004 3.92275 2.74412C3.76647 2.58784 3.55451 2.50004 3.3335 2.50004Z" fill="#151B25"/>
<path d="M3.3335 12.5C2.83904 12.5 2.35569 12.3534 1.94457 12.0787C1.53345 11.804 1.21302 11.4135 1.0238 10.9567C0.834579 10.4999 0.785071 9.99723 0.881534 9.51228C0.977997 9.02732 1.2161 8.58187 1.56573 8.23223C1.91536 7.8826 2.36082 7.6445 2.84577 7.54804C3.33072 7.45157 3.83339 7.50108 4.29021 7.6903C4.74702 7.87952 5.13747 8.19995 5.41217 8.61108C5.68687 9.0222 5.8335 9.50555 5.8335 10C5.8335 10.663 5.57011 11.2989 5.10126 11.7678C4.63242 12.2366 3.99654 12.5 3.3335 12.5ZM3.3335 9.16667C3.16868 9.16667 3.00756 9.21554 2.87052 9.30711C2.73348 9.39868 2.62667 9.52883 2.5636 9.6811C2.50052 9.83337 2.48402 10.0009 2.51618 10.1626C2.54833 10.3242 2.6277 10.4727 2.74424 10.5893C2.86079 10.7058 3.00927 10.7852 3.17092 10.8173C3.33257 10.8495 3.50013 10.833 3.6524 10.7699C3.80467 10.7068 3.93482 10.6 4.02639 10.463C4.11796 10.3259 4.16683 10.1648 4.16683 10C4.16683 9.77899 4.07903 9.56703 3.92275 9.41075C3.76647 9.25447 3.55451 9.16667 3.3335 9.16667Z" fill="#151B25"/>
<path d="M3.3335 19.1667C2.83904 19.1667 2.35569 19.0201 1.94457 18.7454C1.53345 18.4707 1.21302 18.0803 1.0238 17.6235C0.834579 17.1666 0.785071 16.664 0.881534 16.179C0.977997 15.6941 1.2161 15.2486 1.56573 14.899C1.91536 14.5494 2.36082 14.3112 2.84577 14.2148C3.33072 14.1183 3.83339 14.1678 4.29021 14.3571C4.74702 14.5463 5.13747 14.8667 5.41217 15.2778C5.68687 15.6889 5.8335 16.1723 5.8335 16.6667C5.8335 17.3298 5.57011 17.9657 5.10126 18.4345C4.63242 18.9034 3.99654 19.1667 3.3335 19.1667ZM3.3335 15.8334C3.16868 15.8334 3.00756 15.8823 2.87052 15.9739C2.73348 16.0654 2.62667 16.1956 2.5636 16.3478C2.50052 16.5001 2.48402 16.6677 2.51618 16.8293C2.54833 16.991 2.6277 17.1395 2.74424 17.256C2.86079 17.3725 3.00927 17.4519 3.17092 17.4841C3.33257 17.5162 3.50013 17.4997 3.6524 17.4366C3.80467 17.3736 3.93482 17.2668 4.02639 17.1297C4.11796 16.9927 4.16683 16.8316 4.16683 16.6667C4.16683 16.4457 4.07903 16.2338 3.92275 16.0775C3.76647 15.9212 3.55451 15.8334 3.3335 15.8334Z" fill="#151B25"/>
<path d="M18.3333 4.16667H8.33333C8.11232 4.16667 7.90036 4.07887 7.74408 3.92259C7.5878 3.76631 7.5 3.55435 7.5 3.33333C7.5 3.11232 7.5878 2.90036 7.74408 2.74408C7.90036 2.5878 8.11232 2.5 8.33333 2.5H18.3333C18.5543 2.5 18.7663 2.5878 18.9226 2.74408C19.0789 2.90036 19.1667 3.11232 19.1667 3.33333C19.1667 3.55435 19.0789 3.76631 18.9226 3.92259C18.7663 4.07887 18.5543 4.16667 18.3333 4.16667Z" fill="#151B25"/>
<path d="M18.3333 10.8334H8.33333C8.11232 10.8334 7.90036 10.7456 7.74408 10.5893C7.5878 10.4331 7.5 10.2211 7.5 10.0001C7.5 9.77907 7.5878 9.56711 7.74408 9.41083C7.90036 9.25455 8.11232 9.16675 8.33333 9.16675H18.3333C18.5543 9.16675 18.7663 9.25455 18.9226 9.41083C19.0789 9.56711 19.1667 9.77907 19.1667 10.0001C19.1667 10.2211 19.0789 10.4331 18.9226 10.5893C18.7663 10.7456 18.5543 10.8334 18.3333 10.8334Z" fill="#151B25"/>
<path d="M18.3333 17.5H8.33333C8.11232 17.5 7.90036 17.4122 7.74408 17.256C7.5878 17.0997 7.5 16.8877 7.5 16.6667C7.5 16.4457 7.5878 16.2337 7.74408 16.0775C7.90036 15.9212 8.11232 15.8334 8.33333 15.8334H18.3333C18.5543 15.8334 18.7663 15.9212 18.9226 16.0775C19.0789 16.2337 19.1667 16.4457 19.1667 16.6667C19.1667 16.8877 19.0789 17.0997 18.9226 17.256C18.7663 17.4122 18.5543 17.5 18.3333 17.5Z" fill="#151B25"/>
</g>
<defs>
<clipPath id="clip0_997_426">
<rect width="20" height="20" fill="white"/>
</clipPath>
</defs>
</svg>
