<svg width="28" height="28" viewBox="0 0 28 28" fill="none" xmlns="http://www.w3.org/2000/svg">
<path d="M11.8568 8.52067C11.8568 7.92181 12.3424 7.4366 12.9418 7.4366C13.5406 7.4366 14.0263 7.92181 14.0263 8.52067V15.1185L18.5462 17.1036C19.0936 17.3446 19.3424 17.9833 19.1013 18.5303C18.8601 19.0778 18.2208 19.3258 17.6734 19.0849L12.5601 16.8391C12.1494 16.6851 11.8568 16.2889 11.8568 15.8245V8.52067ZM0.507502 8.38899C0.477971 8.28626 0.462112 8.17753 0.462112 8.06551L0.470862 4.05435C0.470862 3.40741 0.995315 2.88341 1.64282 2.88341C2.28977 2.88341 2.81477 3.40741 2.81477 4.05435L2.81149 5.57664C3.5084 4.65047 4.31819 3.81476 5.22212 3.08885C6.13977 2.35285 7.16735 1.72065 8.29446 1.21796C11.8273 -0.356232 15.6609 -0.351861 19.0039 0.92782C22.3218 2.19767 25.1596 4.7237 26.7428 8.20867C26.7734 8.26386 26.7991 8.32178 26.8199 8.38188C28.356 11.8871 28.3418 15.6819 27.0714 18.9936C25.8503 22.1786 23.4692 24.9199 20.1917 26.5329C20.171 26.5449 20.1502 26.5559 20.1283 26.5668C19.448 26.9023 18.736 27.1821 18.0097 27.4028C17.7385 27.4826 17.4563 27.4569 17.2069 27.323C16.3811 26.8788 16.5036 25.6587 17.3999 25.386C17.8801 25.2385 18.3471 25.0653 18.8038 24.8615C18.8262 24.85 18.8497 24.8396 18.8732 24.8298C18.9826 24.7801 19.0914 24.7287 19.1992 24.6757C19.2281 24.6615 19.2577 24.6484 19.2878 24.6369C22.056 23.2654 24.0685 20.9426 25.1032 18.245C26.1932 15.4016 26.1992 12.145 24.8621 9.14958L24.8615 9.14849C23.5239 6.15309 21.0968 3.98277 18.2542 2.89488C15.4082 1.80535 12.1494 1.79988 9.15142 3.13584C8.21618 3.55171 7.3385 4.08632 6.54009 4.72643C5.76568 5.34807 5.07279 6.06478 4.47782 6.8596L5.41298 6.8066C6.05993 6.77108 6.61391 7.26667 6.64946 7.91361C6.68501 8.56001 6.18899 9.11352 5.54149 9.14904L1.72922 9.36432C1.12657 9.3971 0.604846 8.97036 0.507502 8.38899ZM13.5045 27.9995C14.4643 28.0295 14.9642 26.8766 14.2844 26.1974C14.0892 26.0089 13.8524 25.9051 13.5811 25.8936C12.9292 25.8723 12.297 25.7996 11.6567 25.6745C11.2454 25.5958 10.8451 25.7532 10.5963 26.0892C10.1506 26.7154 10.4885 27.588 11.2443 27.7405C11.9895 27.8878 12.7454 27.9745 13.5045 27.9995ZM6.99017 26.1297C7.63274 26.5007 8.44157 26.1253 8.56571 25.392C8.63298 24.9565 8.43774 24.5396 8.05931 24.3134C7.49767 23.9861 6.97485 23.6189 6.47391 23.2053C5.72141 22.5857 4.60579 23.2228 4.75891 24.1861C4.80321 24.4429 4.92571 24.6555 5.12477 24.8243C5.70993 25.3095 6.33381 25.7461 6.99017 26.1297ZM2.14102 21.4131C2.62665 22.1841 3.79094 22.0234 4.04852 21.1486C4.1311 20.8558 4.09008 20.5569 3.92985 20.2979C3.58586 19.7498 3.29 19.1767 3.0379 18.5805C2.69883 17.7751 1.57774 17.7079 1.14789 18.4691C0.987112 18.7505 0.967425 19.0963 1.09321 19.3947C1.38633 20.0924 1.73852 20.7722 2.14102 21.4131ZM0.0360955 14.9825C0.0700018 15.454 0.408518 15.8409 0.871175 15.9392C1.56243 16.0775 2.18313 15.5371 2.13938 14.8338C2.09289 14.1853 2.09946 13.5476 2.15688 12.8996C2.18914 12.5149 2.02071 12.1532 1.70243 11.9341C1.03414 11.4833 0.133439 11.9067 0.0574237 12.7083C-0.0111973 13.4645 -0.01833 14.2251 0.0360955 14.9825Z" fill="#E11D07"/>
</svg>
