<svg width="32" height="32" viewBox="0 0 32 32" fill="none" xmlns="http://www.w3.org/2000/svg">
<path d="M28.6258 7.3875L21.657 0.525C21.5633 0.43125 21.432 0.375 21.2945 0.375H8.43828C6.49453 0.375 4.91953 2.0375 4.91953 4.0875V17.7875H3.20703V27.075H4.91953V27.9125C4.91953 29.9563 6.50078 31.625 8.43828 31.625H25.2758C27.2195 31.625 28.7945 29.9625 28.7945 27.9125V7.79375C28.7945 7.64375 28.7383 7.49375 28.6258 7.3875ZM21.1195 1.525L27.182 7.5H23.882C22.357 7.5 21.1195 6.28125 21.1195 4.7875V1.525ZM27.732 27.9125C27.732 29.3438 26.632 30.5063 25.2758 30.5063H8.43828C7.08203 30.5063 5.98203 29.3438 5.98203 27.9125V27.075H17.6695C19.9508 27.075 21.7945 24.9937 21.7945 22.4312C21.7945 19.8687 19.9445 17.7875 17.6695 17.7875H5.98203V4.0875C5.98203 2.65625 7.08203 1.49375 8.43828 1.49375H20.057V4.7875C20.057 6.9 21.7695 8.61875 23.882 8.61875H27.732V27.9125ZM6.49453 24.775V20.0875H8.28828C8.80703 20.0875 9.21328 20.2188 9.50078 20.4875C9.78828 20.7562 9.93828 21.1063 9.93828 21.5438C9.93828 21.9813 9.79453 22.3375 9.50078 22.6C9.20703 22.8625 8.80078 23 8.28828 23H7.27578V24.775H6.49453ZM10.8883 24.775V20.0875H12.4383C13.032 20.0875 13.5133 20.275 13.8883 20.6437C14.2633 21.0125 14.4445 21.4938 14.4445 22.075V22.7875C14.4445 23.375 14.257 23.85 13.8883 24.2188C13.5133 24.5875 13.032 24.775 12.4383 24.775H10.8883ZM18.1758 22.15V22.775H16.2883V24.775H15.5008V20.0875H18.5008V20.7125H16.282V22.1437H18.1758V22.15Z" fill="#ED1C24"/>
<path d="M8.94609 22.1375C9.08984 21.9813 9.16484 21.7875 9.16484 21.55C9.16484 21.3125 9.08984 21.1125 8.94609 20.9562C8.80234 20.8 8.58359 20.7188 8.28984 20.7188H7.27734V22.375H8.28984C8.58359 22.3687 8.79609 22.2938 8.94609 22.1375Z" fill="#ED1C24"/>
<path d="M12.4367 20.7188H11.668V24.1562H12.4367C12.8117 24.1562 13.1117 24.0312 13.3305 23.775C13.5492 23.5187 13.6617 23.1938 13.6617 22.7938V22.075C13.6617 21.6813 13.5492 21.3563 13.3305 21.1C13.1117 20.8438 12.8117 20.7188 12.4367 20.7188Z" fill="#ED1C24"/>
</svg>
