<svg width="28" height="28" viewBox="0 0 28 28" fill="none" xmlns="http://www.w3.org/2000/svg">
<path d="M19.9738 25.0651L25.1754 19.6829H19.9738V25.0651ZM8.23987 19.6738C8.12508 19.6797 8.01028 19.6626 7.90244 19.6234C7.79461 19.5842 7.696 19.5238 7.61263 19.4459C7.52925 19.368 7.46286 19.2742 7.41749 19.1702C7.37212 19.0662 7.34872 18.9542 7.34872 18.841C7.34872 18.7278 7.37212 18.6158 7.41749 18.5118C7.46286 18.4078 7.52925 18.314 7.61263 18.2361C7.696 18.1581 7.79461 18.0977 7.90244 18.0586C8.01028 18.0194 8.12508 18.0022 8.23987 18.0081H13.8835C13.9983 18.0022 14.1131 18.0194 14.2209 18.0586C14.3288 18.0977 14.4274 18.1581 14.5108 18.2361C14.5941 18.314 14.6605 18.4078 14.7059 18.5118C14.7513 18.6158 14.7747 18.7278 14.7747 18.841C14.7747 18.9542 14.7513 19.0662 14.7059 19.1702C14.6605 19.2742 14.5941 19.368 14.5108 19.4459C14.4274 19.5238 14.3288 19.5842 14.2209 19.6234C14.1131 19.6626 13.9983 19.6797 13.8835 19.6738H8.23987ZM8.23987 14.0547C8.01526 14.0547 7.79985 13.9668 7.64102 13.8104C7.4822 13.654 7.39297 13.4419 7.39297 13.2207C7.39297 12.9995 7.4822 12.7874 7.64102 12.631C7.79985 12.4746 8.01526 12.3867 8.23987 12.3867H19.6984C19.923 12.3867 20.1384 12.4746 20.2972 12.631C20.4561 12.7874 20.5453 12.9995 20.5453 13.2207C20.5453 13.4419 20.4561 13.654 20.2972 13.8104C20.1384 13.9668 19.923 14.0547 19.6984 14.0547H8.23987ZM8.23987 8.43327C8.12508 8.43918 8.01028 8.42203 7.90244 8.38284C7.79461 8.34366 7.696 8.28327 7.61263 8.20535C7.52925 8.12743 7.46286 8.03362 7.41749 7.92962C7.37212 7.82562 7.34872 7.71361 7.34872 7.60042C7.34872 7.48723 7.37212 7.37523 7.41749 7.27123C7.46286 7.16723 7.52925 7.07342 7.61263 6.9955C7.696 6.91758 7.79461 6.85719 7.90244 6.81801C8.01028 6.77882 8.12508 6.76166 8.23987 6.76758H19.6984C19.8132 6.76166 19.928 6.77882 20.0358 6.81801C20.1437 6.85719 20.2423 6.91758 20.3256 6.9955C20.409 7.07342 20.4754 7.16723 20.5208 7.27123C20.5661 7.37523 20.5895 7.48723 20.5895 7.60042C20.5895 7.71361 20.5661 7.82562 20.5208 7.92962C20.4754 8.03362 20.409 8.12743 20.3256 8.20535C20.2423 8.28327 20.1437 8.34366 20.0358 8.38284C19.928 8.42203 19.8132 8.43918 19.6984 8.43327H8.23987ZM26.226 18.0036V1.6748H1.70073V26.2705H18.28V18.8467C18.2791 18.7366 18.3002 18.6273 18.3421 18.5253C18.3841 18.4232 18.446 18.3302 18.5245 18.2517C18.6029 18.1732 18.6962 18.1107 18.7992 18.0677C18.9022 18.0248 19.0127 18.0022 19.1245 18.0013L26.226 18.0036ZM20.1311 27.3438C20.0402 27.5318 19.8997 27.6923 19.7243 27.8086C19.5488 27.9248 19.3449 27.9925 19.1338 28.0046C19.0302 28.0052 18.9274 27.9866 18.8307 27.9499H1.70767C1.29106 27.9498 0.889374 27.7971 0.580794 27.5215L0.511376 27.4622C0.350636 27.3085 0.222626 27.1247 0.134824 26.9216C0.0470218 26.7186 0.00118807 26.5003 0 26.2796L0 1.66569C0 1.22392 0.178208 0.800247 0.495422 0.487869C0.812635 0.175492 1.24287 0 1.69148 0L26.2375 0C26.6856 0.00120503 27.1148 0.177156 27.4314 0.489338C27.748 0.80152 27.9261 1.2245 27.9267 1.66569V18.5026C27.9947 18.6529 28.016 18.8196 27.988 18.9818C27.96 19.144 27.8839 19.2944 27.7694 19.4141L20.1311 27.3438Z" fill="#E11D07"/>
</svg>
