<svg width="28" height="28" viewBox="0 0 28 28" fill="none" xmlns="http://www.w3.org/2000/svg">
<path d="M1.99906 0H26.0005C26.5512 0 27.0512 0.224674 27.413 0.586523C27.7751 0.948372 27.9995 1.44854 27.9995 1.99906V26.0007C27.9995 26.5512 27.7751 27.0512 27.413 27.4132C27.0512 27.7751 26.5512 27.9998 26.0005 27.9998H1.99906C1.44854 27.9998 0.948372 27.7751 0.586523 27.4132C0.224674 27.0514 0 26.5512 0 26.0007V1.99906C0 1.44831 0.224674 0.948372 0.586523 0.586523C0.948372 0.224674 1.44854 0 1.99906 0ZM18.3543 8.4973C18.6712 8.18011 19.1853 8.18011 19.5025 8.4973C19.8197 8.81449 19.8197 9.32855 19.5025 9.64574L15.1482 13.9998L19.5025 18.354C19.8197 18.6712 19.8197 19.1851 19.5025 19.5025C19.1853 19.8197 18.6712 19.8197 18.3543 19.5025L13.9998 15.1482L9.64551 19.5027C9.32832 19.8199 8.81426 19.8199 8.49707 19.5027C8.17988 19.1853 8.17988 18.6715 8.49707 18.3543L12.8513 14L8.4973 9.64574C8.18011 9.32855 8.18011 8.81449 8.4973 8.4973C8.81449 8.18011 9.32855 8.18011 9.64574 8.4973L13.9998 12.8516L18.3543 8.4973ZM26.0005 1.62445H1.99906C1.89674 1.62445 1.80332 1.66683 1.73496 1.73496C1.6666 1.80332 1.62422 1.89674 1.62422 1.99906V26.0007C1.62422 26.1028 1.6666 26.1965 1.73496 26.2648C1.80332 26.3329 1.89674 26.3753 1.99906 26.3753H26.0005C26.1028 26.3753 26.1965 26.3327 26.2646 26.2648C26.3329 26.1965 26.3753 26.1028 26.3753 26.0007V1.99906C26.3753 1.89674 26.3327 1.80332 26.2646 1.73496C26.1967 1.66683 26.103 1.62445 26.0005 1.62445Z" fill="#E11D07"/>
</svg>
