<svg width="17" height="18" viewBox="0 0 17 18" fill="none" xmlns="http://www.w3.org/2000/svg">
<path d="M12.1498 11.1918H11.3819L11.1098 10.9294C12.0623 9.82133 12.6358 8.38279 12.6358 6.8179C12.6358 3.32847 9.80732 0.5 6.3179 0.5C2.82847 0.5 0 3.32847 0 6.8179C0 10.3073 2.82847 13.1358 6.3179 13.1358C7.88279 13.1358 9.32133 12.5623 10.4294 11.6098L10.6918 11.8819V12.6498L15.5517 17.5L17 16.0517L12.1498 11.1918ZM6.3179 11.1918C3.89766 11.1918 1.94397 9.23814 1.94397 6.8179C1.94397 4.39766 3.89766 2.44397 6.3179 2.44397C8.73814 2.44397 10.6918 4.39766 10.6918 6.8179C10.6918 9.23814 8.73814 11.1918 6.3179 11.1918Z" fill="#616161"/>
</svg>
