<svg width="31" height="30" viewBox="0 0 31 30" fill="none" xmlns="http://www.w3.org/2000/svg">
<path d="M25.125 16.125L18 23.25H15.125V20.375L22.25 13.25L25.125 16.125ZM29.375 15.125C29.375 15.5 29 15.875 28.625 16.25L25.5 19.375L24.375 18.25L27.625 15L26.875 14.25L26 15.125L23.125 12.25L25.875 9.625C26.125 9.375 26.625 9.375 27 9.625L28.75 11.375C29 11.625 29 12.125 28.75 12.5C28.5 12.75 28.25 13 28.25 13.25C28.25 13.5 28.5 13.75 28.75 14C29.125 14.375 29.5 14.75 29.375 15.125ZM4.25 25V5H13V11.25H19.25V13.125L21.75 10.625V10L14.25 2.5H4.25C2.875 2.5 1.75 3.625 1.75 5V25C1.75 26.375 2.875 27.5 4.25 27.5H19.25C20.625 27.5 21.75 26.375 21.75 25H4.25ZM14.25 21.375C14 21.375 13.75 21.5 13.625 21.5L13 18.75H11.125L8.5 20.875L9.25 17.5H7.375L6.125 23.75H8L11.625 20.5L12.375 23.375H13.625L14.25 23.25V21.375Z" fill="#616161"/>
</svg>
