<svg width="20" height="20" viewBox="0 0 20 20" fill="none" xmlns="http://www.w3.org/2000/svg">
<path d="M19 2.72383C19 1.77179 18.2282 1 17.2762 1H2.72383C1.77179 1 1 1.77179 1 2.72383V17.2762C1 18.2282 1.77179 19 2.72383 19H17.2762C18.2282 19 19 18.2282 19 17.2762L19 2.72383ZM2.74425 2.39683H17.3C17.4795 2.39683 17.6032 2.51854 17.6032 2.69804V10.8942H13.3839C12.9977 10.8942 12.6848 11.1938 12.6848 11.5799C12.6848 13.1027 11.4459 14.3349 9.92309 14.3349C8.43857 14.3349 7.22388 13.1543 7.16372 11.6843C7.16987 11.647 7.17305 11.6206 7.17305 11.5816C7.17305 11.1955 6.86002 10.8942 6.47388 10.8942H2.39683V2.69804C2.39683 2.51854 2.56476 2.39683 2.74425 2.39683ZM17.3 17.6032H2.74425C2.56476 17.6032 2.39683 17.4333 2.39683 17.2538V12.291H5.82183C6.1552 14.2487 7.86739 15.7519 9.92308 15.7519C11.9787 15.7519 13.6909 14.2487 14.0243 12.291H17.6032V17.2538C17.6032 17.4333 17.4795 17.6032 17.3 17.6032Z" fill="#151B25"/>
<path d="M6.05463 5.64548H13.9552C14.3413 5.64548 14.6543 5.33322 14.6543 4.94707C14.6543 4.56092 14.3413 4.24866 13.9552 4.24866H6.05463C5.66848 4.24866 5.35547 4.56092 5.35547 4.94707C5.35547 5.33322 5.66848 5.64548 6.05463 5.64548Z" fill="#151B25"/>
<path d="M6.05463 8.8624H13.9552C14.3413 8.8624 14.6543 8.55013 14.6543 8.16399C14.6543 7.77785 14.3413 7.46558 13.9552 7.46558H6.05463C5.66848 7.46558 5.35547 7.77785 5.35547 8.16399C5.35547 8.55013 5.66848 8.8624 6.05463 8.8624Z" fill="#151B25"/>
</svg>
