<svg width="20" height="20" viewBox="0 0 20 20" fill="none" xmlns="http://www.w3.org/2000/svg">
<g clip-path="url(#clip0_1316_301836)">
<path d="M0.8 19V19.2H1H15.4053H15.4881L15.5467 19.1414L19.1414 15.5467L19.2 15.4881V15.4053V1V0.8H19H1H0.8V1V19ZM14.675 14.875V18.05H1.95V1.95H18.05V14.675H14.875H14.675V14.875ZM17.2369 15.825L15.825 17.2369V15.825H17.2369Z" fill="white" stroke="white" stroke-width="0.4"/>
<path d="M15.825 5.5V5.3H15.625H4.375H4.175V5.5V6.25V6.45H4.375H15.625H15.825V6.25V5.5Z" fill="white" stroke="white" stroke-width="0.4"/>
<path d="M15.825 8.125V7.925H15.625H4.375H4.175V8.125V8.875V9.075H4.375H15.625H15.825V8.875V8.125Z" fill="white" stroke="white" stroke-width="0.4"/>
<path d="M15.825 10.75V10.55H15.625H4.375H4.175V10.75V11.5V11.7H4.375H15.625H15.825V11.5V10.75Z" fill="white" stroke="white" stroke-width="0.4"/>
</g>
<defs>
<clipPath id="clip0_1316_301836">
<rect width="20" height="20" fill="white"/>
</clipPath>
</defs>
</svg>
