<svg width="16" height="20" viewBox="0 0 16 20" fill="none" xmlns="http://www.w3.org/2000/svg">
<g clip-path="url(#clip0_997_476)">
<path d="M2.47873 0H10.2286C10.3596 0 10.4781 0.0567082 10.5598 0.147441L14.9976 4.41698C15.0883 4.50419 15.134 4.62113 15.134 4.73768L15.1352 17.5217C15.1352 18.8795 14.0147 20 12.6569 20H2.47873C1.1193 20 0 18.8811 0 17.5217V2.47873C0 1.11735 1.11774 0 2.47873 0ZM10.7777 1.59135V2.77909C10.8715 4.01689 11.7093 4.48425 12.8708 4.50419L13.8032 4.50263L10.7777 1.59135ZM14.2431 5.34465C14.1817 5.37633 14.1121 5.39432 14.0382 5.39432L12.8634 5.39236C11.2294 5.36616 10.0201 4.55582 9.88991 2.84362L9.88521 2.77909V0.892078H2.47873C1.60426 0.892078 0.892078 1.60425 0.892078 2.47873V9.77532L14.2431 9.77062V5.34465ZM0.892078 10.6584V17.5217C0.892078 18.3946 1.60621 19.1079 2.47873 19.1079H12.6569C13.5235 19.1079 14.2431 18.3883 14.2431 17.5217V10.6631L0.892078 10.6584ZM2.49594 5.59064H3.68017C3.72436 5.59064 3.75369 5.61998 3.75369 5.66417V9.09052C3.75369 9.13432 3.72436 9.16404 3.68017 9.16404H2.49594C2.45136 9.16404 2.42164 9.13432 2.42164 9.09052V5.66417C2.40756 5.61998 2.45136 5.59064 2.49594 5.59064ZM4.73689 4.18428H5.92073C5.96531 4.18428 5.99425 4.21322 5.99425 4.25781V9.09052C5.99425 9.13432 5.96531 9.16404 5.92073 9.16404H4.73689C4.69309 9.16404 4.66337 9.13432 4.66337 9.09052V4.25781C4.66337 4.21322 4.69309 4.18428 4.73689 4.18428ZM11.4586 7.27859H12.6428C12.6874 7.27859 12.7167 7.30832 12.7167 7.35251V9.07566C12.7167 9.11946 12.6874 9.1484 12.6428 9.1484H11.4586C11.4152 9.1484 11.3862 9.11946 11.3862 9.07566V7.35251C11.3862 7.32279 11.4152 7.27859 11.4586 7.27859ZM6.97745 6.44166H8.16168C8.20626 6.44166 8.2352 6.47099 8.2352 6.51518V9.07566C8.2352 9.11946 8.20626 9.1484 8.16168 9.1484H6.97745C6.93404 9.1484 6.9051 9.11946 6.9051 9.07566V6.51518C6.9051 6.48585 6.93404 6.44166 6.97745 6.44166ZM9.21762 5.84525H10.4018C10.446 5.84525 10.4758 5.87614 10.4758 5.91916V9.09052C10.4758 9.13432 10.446 9.16404 10.4018 9.16404H9.21762C9.17343 9.16404 9.1441 9.13432 9.1441 9.09052V5.91916C9.1441 5.87614 9.17343 5.84525 9.21762 5.84525ZM7.90356 15.3757L10.2622 15.4176C10.2622 16.2639 9.84611 17.041 9.15231 17.5127L7.90356 15.3757ZM7.74595 11.7257C8.30051 11.7683 8.67479 11.8364 9.17539 12.0863C10.1332 12.5861 10.7996 13.5849 10.8547 14.7234L10.8684 14.9037H10.6881L7.9544 14.82H7.80109L7.74595 11.7257ZM8.10692 14.4872L10.5078 14.5568C10.3647 13.1719 9.3987 12.3366 8.07916 12.0722L8.10692 14.4872ZM7.11199 15.1301L8.45812 17.4618C8.042 17.6976 7.58443 17.8232 7.11199 17.8232C5.62702 17.8232 4.41972 16.6155 4.41972 15.1301C4.41972 13.687 5.55779 12.4934 7.00092 12.4375L7.11199 15.1301Z" fill="white"/>
</g>
<defs>
<clipPath id="clip0_997_476">
<rect width="15.1352" height="20" fill="white"/>
</clipPath>
</defs>
</svg>
