<svg width="20" height="20" viewBox="0 0 20 20" fill="none" xmlns="http://www.w3.org/2000/svg">
<path d="M10.0026 0.835938C4.96094 0.835938 0.835938 4.96094 0.835938 10.0026C0.835938 15.0443 4.96094 19.1693 10.0026 19.1693C15.0443 19.1693 19.1693 15.0443 19.1693 10.0026C19.1693 4.96094 15.0443 0.835938 10.0026 0.835938ZM10.0026 17.3359C5.9601 17.3359 2.66927 14.0451 2.66927 10.0026C2.66927 5.9601 5.9601 2.66927 10.0026 2.66927C14.0451 2.66927 17.3359 5.9601 17.3359 10.0026C17.3359 14.0451 14.0451 17.3359 10.0026 17.3359ZM14.2101 5.95094L8.16927 11.9918L5.7951 9.62677L4.5026 10.9193L8.16927 14.5859L15.5026 7.2526L14.2101 5.95094Z" fill="#008000"/>
</svg>
